<?xml version="1.0" encoding="UTF-8"?>
<svg version="1.1" xmlns="http://www.w3.org/2000/svg" width="1280" height="853">
<path d="M0 0 C0.93647322 -0.00623996 1.87294644 -0.01247993 2.83779764 -0.01890898 C5.95377209 -0.03477429 9.06895724 -0.02225991 12.18493652 -0.00964355 C14.42779494 -0.01506753 16.67064979 -0.02219173 18.91349792 -0.03088379 C24.98991097 -0.04908709 31.06605173 -0.04206179 37.14246941 -0.02936745 C43.5083984 -0.01922437 49.87430444 -0.02863677 56.24023438 -0.03491211 C67.6139449 -0.04265021 78.98751747 -0.03023731 90.36120039 -0.00987476 C100.66106817 0.00799482 110.96075559 0.00489026 121.26062012 -0.0135498 C133.23885319 -0.03498483 145.21697682 -0.04290856 157.19523573 -0.03110075 C163.52959999 -0.02487194 169.86384017 -0.0240135 176.19819641 -0.0372467 C182.15401865 -0.04882049 188.10950103 -0.04075106 194.06528664 -0.01766968 C196.24813587 -0.01239083 198.43101382 -0.0138822 200.61385155 -0.02272034 C203.59931481 -0.03369171 206.58369694 -0.01989246 209.5690918 0 C210.85710056 -0.01338433 210.85710056 -0.01338433 212.1711297 -0.02703905 C218.06241041 0.04882122 223.30947096 1.19060224 228.2845459 4.50793457 C228.6145459 5.49793457 228.9445459 6.48793457 229.2845459 7.50793457 C229.9032959 7.75543457 230.5220459 8.00293457 231.1595459 8.25793457 C234.37397782 10.14877688 235.25652704 13.07236139 236.2845459 16.50793457 C236.68884026 19.52126158 236.69454563 22.4902006 236.67222595 25.52731323 C236.68030426 26.85595585 236.68030426 26.85595585 236.68854576 28.21143973 C236.70280767 31.16767343 236.69572592 34.12345824 236.68859863 37.07971191 C236.69430314 39.20404927 236.70126772 41.32838355 236.70939636 43.45271301 C236.72733461 49.21515994 236.72615799 54.97745464 236.72045398 60.73992109 C236.71736286 65.55351597 236.72345379 70.36708158 236.72949272 75.18067229 C236.74353877 86.53848241 236.74197619 97.89621732 236.73059082 109.25402832 C236.71911152 120.96416926 236.73318206 132.67408112 236.75998729 144.38419187 C236.78215272 154.44470404 236.7887797 164.50514434 236.78291088 174.56567919 C236.77954191 180.5714438 236.78195255 186.5770616 236.79916191 192.58280563 C236.81464205 198.23162315 236.8106633 203.88010169 236.79185677 209.52890587 C236.78817378 211.59887948 236.79127085 213.66887826 236.80174255 215.73882866 C236.81497401 218.57113732 236.8033857 221.40232737 236.78575134 224.23458862 C236.79535635 225.04793399 236.80496136 225.86127936 236.81485742 226.69927156 C236.72733061 233.56190033 234.60351545 239.20786251 230.6595459 244.82043457 C223.8817339 249.63624836 216.69211325 251.10180878 208.53149414 251.01586914 C207.60303916 251.0221091 206.67458419 251.02834907 205.71799421 251.03477812 C202.63509503 251.05061715 199.55299654 251.03813952 196.47009277 251.0255127 C194.24841351 251.03093784 192.02673786 251.0380627 189.80506897 251.04675293 C183.79062847 251.06494228 177.77646334 251.05793673 171.7620182 251.04523659 C165.45795594 251.03508625 159.15391674 251.04450792 152.84985352 251.05078125 C141.58735883 251.05851697 130.32497729 251.04611207 119.06250924 251.0257439 C108.8664401 251.00787469 98.67055316 251.01097936 88.4744873 251.02941895 C76.61270597 251.05086116 64.75101277 251.05877387 52.88920832 251.04696989 C46.61798385 251.04074438 40.34688468 251.03987351 34.07566833 251.05311584 C28.17892445 251.06469842 22.28252354 251.05660424 16.38581657 251.03353882 C14.22596238 251.02826464 12.06607916 251.02974329 9.90623665 251.03858948 C6.94963829 251.04957951 3.99412741 251.03573939 1.03759766 251.01586914 C0.190302 251.02479203 -0.65699365 251.03371491 -1.52996492 251.04290819 C-9.03940132 250.9455392 -15.66077092 248.8476919 -21.6529541 244.25793457 C-26.31477023 238.04217973 -27.15929485 231.93101099 -27.10986328 224.41299438 C-27.11595438 223.53116733 -27.12204549 222.64934028 -27.12832117 221.7407912 C-27.14488948 218.80382688 -27.14018418 215.86729905 -27.13537598 212.93029785 C-27.14271986 210.8172867 -27.15130702 208.70427956 -27.16104126 206.59127808 C-27.18323181 200.86395467 -27.18618917 195.13677526 -27.18429375 189.40941477 C-27.18417394 184.62320078 -27.19274237 179.83701717 -27.20107126 175.05081165 C-27.22029637 163.75671346 -27.22319233 152.46268917 -27.21643066 141.1685791 C-27.20978983 129.52826515 -27.23265825 117.88826807 -27.2697444 106.24801838 C-27.30045913 96.24351876 -27.3117995 86.23912097 -27.30790758 76.23457515 C-27.305842 70.26396376 -27.31129029 64.29359901 -27.33580017 58.32303238 C-27.35809389 52.70697627 -27.35616717 47.09143478 -27.33587265 41.47537613 C-27.33246734 39.41871744 -27.33753093 37.36202391 -27.35185623 35.30541229 C-27.48133553 15.33278241 -27.48133553 15.33278241 -21.7154541 7.50793457 C-21.0554541 7.50793457 -20.3954541 7.50793457 -19.7154541 7.50793457 C-19.3854541 6.51793457 -19.0554541 5.52793457 -18.7154541 4.50793457 C-12.86796033 0.60888171 -6.84524152 -0.07113226 0 0 Z M13.85095215 47.35168457 C10.52117668 51.93531564 10.68776261 57.06228705 11.2845459 62.50793457 C13.2109121 67.96248234 17.09516128 72.90391658 22.28845215 75.51574707 C29.04023152 78.12252102 34.63413122 77.74907556 41.4095459 75.44543457 C46.01195972 72.34380787 50.30791918 68.68879144 51.98376465 63.23059082 C52.2839983 60.94959488 52.34710451 58.80592075 52.2845459 56.50793457 C52.3051709 55.35293457 52.3257959 54.19793457 52.3470459 53.00793457 C50.57510028 47.17093723 46.495075 42.71083008 41.4798584 39.26965332 C30.35299448 33.86004897 21.07436432 38.870183 13.85095215 47.35168457 Z M111.4017334 101.48449707 C110.38738359 102.67525554 109.39613267 103.88651684 108.4407959 105.12512207 C107.2845459 106.50793457 107.2845459 106.50793457 105.2845459 107.50793457 C105.29614746 106.50891113 105.30774902 105.5098877 105.31970215 104.48059082 C105.32872559 103.19023926 105.33774902 101.8998877 105.3470459 100.57043457 C105.35864746 99.28266113 105.37024902 97.9948877 105.38220215 96.66809082 C105.64987139 93.64495054 105.64987139 93.64495054 104.2845459 92.50793457 C93.3945459 92.50793457 82.5045459 92.50793457 71.2845459 92.50793457 C71.2845459 130.12793457 71.2845459 167.74793457 71.2845459 206.50793457 C82.5045459 206.50793457 93.7245459 206.50793457 105.2845459 206.50793457 C105.32192871 201.70359863 105.35931152 196.8992627 105.39782715 191.94934082 C105.42813136 188.89136341 105.45929511 185.83344248 105.49353027 182.7755127 C105.54769453 177.93024672 105.59881012 173.08509246 105.63098145 168.23962402 C105.65714204 164.32961313 105.69763256 160.41998105 105.74773216 156.51020622 C105.76431521 155.02446165 105.77588248 153.53865169 105.78215981 152.05282784 C105.81943735 144.03466925 106.2045332 136.9917345 109.2845459 129.50793457 C109.65683949 127.84953583 110.01390279 126.18592182 110.2845459 124.50793457 C110.9445459 124.50793457 111.6045459 124.50793457 112.2845459 124.50793457 C112.8826709 123.90980957 113.4807959 123.31168457 114.0970459 122.69543457 C118.36734247 118.42513799 121.79501227 117.12013954 127.71960449 116.98815918 C141.22672054 117.10051042 141.22672054 117.10051042 145.87438965 120.81652832 C151.32921388 127.35929533 152.38585664 135.25471491 152.48986816 143.50134277 C152.49976776 144.18482285 152.50966736 144.86830292 152.51986694 145.57249451 C152.55129995 147.81786711 152.57616684 150.06326083 152.60095215 152.30871582 C152.62153742 153.87099234 152.6425343 155.43326348 152.66392517 156.99552917 C152.7189834 161.09717443 152.76846398 165.19886858 152.81677246 169.30059814 C152.87596418 174.22747366 152.94210232 179.15426026 153.00707245 184.08106232 C153.1048774 191.55663186 153.1938732 199.03225979 153.2845459 206.50793457 C164.5045459 206.50793457 175.7245459 206.50793457 187.2845459 206.50793457 C187.37202881 193.03529681 187.37202881 193.03529681 187.43103027 179.56262207 C187.4488556 174.05504516 187.46977487 168.54762005 187.51086426 163.04016113 C187.54383587 158.59214634 187.56147718 154.14429471 187.56917763 149.69616699 C187.5746542 148.01238441 187.58534488 146.32860916 187.60173607 144.64489746 C187.82306225 121.54680405 187.82306225 121.54680405 177.56970215 101.58996582 C166.91028013 91.36651198 153.2760354 89.00752237 139.03063965 89.26574707 C127.94432729 89.98248468 119.16118933 93.33867819 111.4017334 101.48449707 Z M15.2845459 92.50793457 C15.2845459 130.12793457 15.2845459 167.74793457 15.2845459 206.50793457 C26.1745459 206.50793457 37.0645459 206.50793457 48.2845459 206.50793457 C49.49216804 205.52018501 49.49216804 205.52018501 49.40759373 203.62012386 C49.40667193 202.7877448 49.40575014 201.95536573 49.40480042 201.09776306 C49.40617508 200.14558899 49.40754974 199.19341492 49.40896606 198.21238708 C49.40537079 197.15934891 49.40177551 196.10631073 49.39807129 195.0213623 C49.39821732 193.91906281 49.39836334 192.81676331 49.39851379 191.68106079 C49.39781411 188.01786365 49.39001914 184.35471663 49.38220215 180.69152832 C49.38033816 178.15946989 49.37891417 175.62741109 49.37791443 173.09535217 C49.37447936 167.09945208 49.36658858 161.10357368 49.35656494 155.10768229 C49.34540267 148.28312399 49.33989307 141.45856485 49.3348695 134.63399971 C49.32440594 120.59196609 49.30606091 106.54995538 49.2845459 92.50793457 C38.0645459 92.50793457 26.8445459 92.50793457 15.2845459 92.50793457 Z " fill="#1C61AD" transform="translate(930.7154541015625,295.4920654296875)"/>
<path d="M0 0 C1.25683594 0.00322266 2.51367188 0.00644531 3.80859375 0.00976562 C5.12730469 0.01814453 6.44601562 0.02652344 7.8046875 0.03515625 C9.14452961 0.04017136 10.4843735 0.04473424 11.82421875 0.04882812 C15.10941956 0.06064539 18.39453147 0.07712008 21.6796875 0.09765625 C24.0878545 5.25770269 26.17650321 10.23960516 27.5546875 15.78515625 C28.04195312 17.69748047 28.04195312 17.69748047 28.5390625 19.6484375 C28.71630859 20.34791504 28.89355469 21.04739258 29.07617188 21.76806641 C30.50390026 27.27914418 32.05193458 32.75916119 33.57373047 38.24487305 C35.10948954 43.83420373 36.4674652 49.42907389 37.6796875 55.09765625 C39.69825171 52.06980994 40.27049869 50.1815105 41.046875 46.6796875 C41.29074951 45.59743896 41.53462402 44.51519043 41.78588867 43.40014648 C42.03959229 42.24844971 42.2932959 41.09675293 42.5546875 39.91015625 C43.08885499 37.54274544 43.62400948 35.1755571 44.16015625 32.80859375 C44.41974121 31.65713867 44.67932617 30.50568359 44.94677734 29.31933594 C50.98045266 2.79689109 50.98045266 2.79689109 53.6796875 0.09765625 C55.75230826 0.00998513 57.82789044 -0.00930248 59.90234375 0 C61.16240234 0.00322266 62.42246094 0.00644531 63.72070312 0.00976562 C65.06119859 0.01812222 66.40169338 0.02658718 67.7421875 0.03515625 C69.08658692 0.04016965 70.4309881 0.04473283 71.77539062 0.04882812 C75.07686691 0.06066137 78.37825553 0.07714654 81.6796875 0.09765625 C83.58423736 5.61847016 85.28101294 11.11469646 86.6796875 16.78515625 C86.93395508 17.81370728 86.93395508 17.81370728 87.19335938 18.86303711 C88.27281677 23.27913805 89.25120634 27.70950199 90.1796875 32.16015625 C91.93452632 44.42472542 91.93452632 44.42472542 96.6796875 55.09765625 C99.3403738 45.19084556 101.90630915 35.27402567 104.2421875 25.28515625 C109.68452524 2.09281851 109.68452524 2.09281851 111.6796875 0.09765625 C113.72850947 -0.00230469 115.78077319 -0.03315321 117.83203125 -0.03515625 C119.70858398 -0.03708984 119.70858398 -0.03708984 121.62304688 -0.0390625 C122.94111328 -0.03519531 124.25917969 -0.03132813 125.6171875 -0.02734375 C127.58848633 -0.03314453 127.58848633 -0.03314453 129.59960938 -0.0390625 C130.85193359 -0.03777344 132.10425781 -0.03648437 133.39453125 -0.03515625 C135.12884399 -0.03346436 135.12884399 -0.03346436 136.89819336 -0.03173828 C139.6796875 0.09765625 139.6796875 0.09765625 141.6796875 1.09765625 C141.48632812 1.65453125 141.29296875 2.21140625 141.09375 2.78515625 C140.83335937 3.54828125 140.57296875 4.31140625 140.3046875 5.09765625 C140.04945313 5.84015625 139.79421875 6.58265625 139.53125 7.34765625 C138.86421769 9.50174225 138.29069236 11.68482209 137.75390625 13.875 C136.68762717 18.22049422 135.31028199 22.42720318 133.8671875 26.66015625 C133.47406372 27.82708008 133.47406372 27.82708008 133.07299805 29.01757812 C132.27763174 31.3784235 131.47872322 33.73805076 130.6796875 36.09765625 C128.19876138 43.45436167 125.73694103 50.80591265 123.5546875 58.2578125 C122.1143182 62.93258249 120.51736251 67.55535642 118.95043945 72.18896484 C116.93515864 78.20148127 115.17326729 84.24673205 113.5390625 90.375 C112.6796875 93.09765625 112.6796875 93.09765625 110.6796875 96.09765625 C107.9140625 96.48583984 107.9140625 96.48583984 104.4296875 96.49609375 C102.55796875 96.50189453 102.55796875 96.50189453 100.6484375 96.5078125 C98.68390625 96.49041016 98.68390625 96.49041016 96.6796875 96.47265625 C95.37 96.48425781 94.0603125 96.49585938 92.7109375 96.5078125 C91.463125 96.50394531 90.2153125 96.50007813 88.9296875 96.49609375 C87.77984375 96.49270996 86.63 96.48932617 85.4453125 96.48583984 C84.07632813 96.29368896 84.07632813 96.29368896 82.6796875 96.09765625 C80.70411614 93.13429921 80.14110686 91.38169979 79.3671875 87.97265625 C78.12552805 82.77281339 76.70721075 77.65605017 75.1796875 72.53515625 C72.37954224 63.1145932 69.7291265 53.71425464 67.6796875 44.09765625 C67.0196875 44.09765625 66.3596875 44.09765625 65.6796875 44.09765625 C65.57398438 44.88914062 65.46828125 45.680625 65.359375 46.49609375 C64.50493729 51.02363149 63.16941592 55.32666798 61.8046875 59.72265625 C59.18351216 68.31510682 56.8516261 76.9116864 54.87109375 85.67578125 C54.60167969 86.866875 54.33226562 88.05796875 54.0546875 89.28515625 C53.81492187 90.37183594 53.57515625 91.45851563 53.328125 92.578125 C52.6796875 95.09765625 52.6796875 95.09765625 51.6796875 96.09765625 C49.53409923 96.1854123 47.38564329 96.20460844 45.23828125 96.1953125 C43.93310547 96.19208984 42.62792969 96.18886719 41.28320312 96.18554688 C39.8945306 96.17719026 38.50585873 96.1687253 37.1171875 96.16015625 C35.72461094 96.15514291 34.33203269 96.15057972 32.93945312 96.14648438 C29.5194888 96.13465059 26.09960906 96.11816505 22.6796875 96.09765625 C21.23963233 91.80684277 19.80311428 87.51485289 18.3671875 83.22265625 C17.96306641 82.01867187 17.55894531 80.8146875 17.14257812 79.57421875 C15.42744374 74.44275979 13.71930759 69.31801285 12.19921875 64.125 C10.25143498 57.52023618 7.94391739 51.03651722 5.6796875 44.53515625 C2.01674263 33.98807708 -1.62133345 23.44445943 -4.9453125 12.78515625 C-5.161875 12.09615234 -5.3784375 11.40714844 -5.6015625 10.69726562 C-6.59550294 7.51604268 -7.56880169 4.34585296 -8.3203125 1.09765625 C-5.50207058 -0.31146471 -3.14779968 -0.01417928 0 0 Z " fill="#1C61AD" transform="translate(715.3203125,385.90234375)"/>
<path d="M0 0 C4.929375 -0.020625 9.85875 -0.04125 14.9375 -0.0625 C16.49460693 -0.071604 18.05171387 -0.08070801 19.65600586 -0.09008789 C21.47950562 -0.09383423 21.47950562 -0.09383423 23.33984375 -0.09765625 C24.59144287 -0.10289307 25.84304199 -0.10812988 27.13256836 -0.11352539 C30 0 30 0 31 1 C31.0985491 2.78195872 31.126321 4.56785748 31.12698364 6.35253906 C31.13121338 8.09416321 31.13121338 8.09416321 31.13552856 9.87097168 C31.13249222 11.79882507 31.13249222 11.79882507 31.12939453 13.765625 C31.13074856 15.12373909 31.1325285 16.4818528 31.13470459 17.83996582 C31.13927877 21.53821201 31.13748943 25.23643042 31.1343255 28.93467712 C31.13180182 32.79662147 31.13413946 36.65856337 31.13571167 40.52050781 C31.13753334 47.00716582 31.13512712 53.49381246 31.13037109 59.98046875 C31.12492848 67.49049923 31.12669113 75.00050256 31.1321975 82.51053238 C31.1367287 88.9470353 31.13737915 95.38353003 31.13475883 101.82003403 C31.13319609 105.66929316 31.1330022 109.51853952 31.13629532 113.36779785 C31.13917413 116.98580706 31.13719816 120.60378111 31.13140106 124.2217865 C31.12943791 126.19086661 31.13242729 128.15994967 31.13552856 130.12902832 C31.13270874 131.29011108 31.12988892 132.45119385 31.12698364 133.64746094 C31.1264181 135.1706192 31.1264181 135.1706192 31.12584114 136.72454834 C31 139 31 139 30 140 C27.85441173 140.08775605 25.70595579 140.10695219 23.55859375 140.09765625 C22.25341797 140.09443359 20.94824219 140.09121094 19.60351562 140.08789062 C18.2148431 140.07953401 16.82617123 140.07106905 15.4375 140.0625 C14.04492344 140.05748666 12.65234519 140.05292347 11.25976562 140.04882812 C7.8398013 140.03699434 4.41992156 140.0205088 1 140 C0.505 136.535 0.505 136.535 0 133 C-0.680625 133.5775 -1.36125 134.155 -2.0625 134.75 C-10.73745926 141.39464965 -20.03996216 144.16483494 -31 143 C-37.37506541 141.79591261 -43.37393762 140.28186972 -49 137 C-49 136.34 -49 135.68 -49 135 C-49.56847656 134.76023437 -50.13695312 134.52046875 -50.72265625 134.2734375 C-59.36838504 129.43894765 -64.22511852 120.14078607 -67 111 C-71.30432212 93.96394612 -69.92797235 76.60614953 -61.8515625 61.09375 C-55.93983125 51.21592057 -46.53839536 44.82803181 -35.56640625 41.5078125 C-25.46176982 39.50841716 -15.38232665 40.81860546 -6 45 C-4.35 46.32 -2.7 47.64 -1 49 C-0.67 32.83 -0.34 16.66 0 0 Z M-34.375 72.1875 C-39.76670339 81.51929433 -40.50687541 91.65398237 -38.34375 102.19921875 C-36.68621531 107.43617102 -34.59625193 111.60401892 -30.11328125 114.90625 C-24.48348927 117.82000556 -18.45229243 118.75916112 -12.3125 117.0625 C-7.44960825 115.10858133 -3.4729299 111.89818662 0 108 C1.10665421 104.68003736 1.12934856 102.18311401 1.1328125 98.6875 C1.13410156 97.44742188 1.13539063 96.20734375 1.13671875 94.9296875 C1.13091797 92.98449219 1.13091797 92.98449219 1.125 91 C1.12886719 89.70320313 1.13273438 88.40640625 1.13671875 87.0703125 C1.13542969 85.83023438 1.13414062 84.59015625 1.1328125 83.3125 C1.13112061 81.60513672 1.13112061 81.60513672 1.12939453 79.86328125 C1.12726873 76.92667764 1.12726873 76.92667764 0 74 C-1.91353763 72.39014287 -1.91353763 72.39014287 -4.25 70.9375 C-5.01828125 70.43089844 -5.7865625 69.92429687 -6.578125 69.40234375 C-16.05561037 63.914574 -26.16986072 64.63013488 -34.375 72.1875 Z " fill="#1C61AD" transform="translate(596,342)"/>
<path d="M0 0 C10.23 0 20.46 0 31 0 C31.33 25.41 31.66 50.82 32 77 C36.455 71.555 36.455 71.555 41 66 C41.66 66 42.32 66 43 66 C43.27328125 65.40904541 43.5465625 64.81809082 43.828125 64.20922852 C44.96329637 62.06919399 46.15748812 60.46719726 47.75 58.65234375 C48.2759375 58.04712891 48.801875 57.44191406 49.34375 56.81835938 C49.8903125 56.19767578 50.436875 55.57699219 51 54.9375 C52.08480732 53.69790296 53.16819583 52.45706251 54.25 51.21484375 C54.72953125 50.66948975 55.2090625 50.12413574 55.703125 49.56225586 C57.19611743 47.81919476 57.19611743 47.81919476 59 45 C69.59659856 42.35085036 82.15829354 43.90593821 93 44 C92.23881497 48.85338976 90.22381481 51.66346482 87.0625 55.3125 C86.60681641 55.86228516 86.15113281 56.41207031 85.68164062 56.97851562 C84.50584763 58.36433314 83.25761211 59.68798204 82 61 C81.34 61 80.68 61 80 61 C79.938125 61.556875 79.87625 62.11375 79.8125 62.6875 C78.666844 65.94821323 76.45003003 67.57067445 74 70 C71.7608025 72.60345692 69.62479477 75.29204721 67.48632812 77.97851562 C66.3666298 79.35463341 65.18762184 80.68205506 64 82 C63.34 82 62.68 82 62 82 C61.15545644 85.37817425 60.89155081 87.67465243 62 91 C62.66 91 63.32 91 64 91 C65.3671875 92.7578125 65.3671875 92.7578125 66.875 95.125 C67.40996094 95.95386719 67.94492187 96.78273438 68.49609375 97.63671875 C68.99238281 98.41660156 69.48867188 99.19648438 70 100 C72.98895308 104.53163854 76.08488945 108.97773724 79.20703125 113.41796875 C80.86055729 115.79919035 82.46899228 118.20337015 84.0625 120.625 C86.46412713 124.26285342 89.02277988 127.73888711 91.703125 131.17578125 C93.86997348 134.22372776 95 136.21146065 95 140 C90.07048719 140.12357051 85.14187468 140.21432177 80.21118164 140.2746582 C78.53393859 140.29980792 76.8568052 140.33393259 75.17993164 140.37719727 C72.76941915 140.4378346 70.36035448 140.46620284 67.94921875 140.48828125 C66.82407112 140.52699089 66.82407112 140.52699089 65.67619324 140.56648254 C63.5534668 140.56762695 63.5534668 140.56762695 60 140 C57.99233645 137.58142695 57 136.16303722 57 133 C56.34 133 55.68 133 55 133 C53.6328125 131.27734375 53.6328125 131.27734375 52.125 128.9375 C51.63257813 128.18339844 51.14015625 127.42929687 50.6328125 126.65234375 C49.42090069 124.68371188 48.25760053 122.68498056 47.12109375 120.671875 C44.90457329 116.76282544 42.4456831 113.0390509 39.9375 109.3125 C39.2868457 108.33700195 39.2868457 108.33700195 38.62304688 107.34179688 C36.48807945 104.15396881 34.30567435 101.07423246 32 98 C31.67 111.86 31.34 125.72 31 140 C26.070625 140.020625 21.14125 140.04125 16.0625 140.0625 C13.7268396 140.07615601 13.7268396 140.07615601 11.34399414 140.09008789 C9.52049438 140.09383423 9.52049438 140.09383423 7.66015625 140.09765625 C6.40855713 140.10289307 5.15695801 140.10812988 3.86743164 140.11352539 C1 140 1 140 0 139 C-0.09639184 137.20305962 -0.12187425 135.40229107 -0.12025452 133.60276794 C-0.12162918 132.43182587 -0.12300385 131.26088379 -0.12442017 130.05445862 C-0.12082489 128.75830124 -0.11722961 127.46214386 -0.11352539 126.12670898 C-0.11324352 124.75712079 -0.11340125 123.38753244 -0.1139679 122.01794434 C-0.11425588 118.28877052 -0.10835909 114.55962859 -0.10139394 110.83046222 C-0.09516047 106.93735587 -0.09455661 103.04424887 -0.09336853 99.15113831 C-0.09025519 91.77401854 -0.08204178 84.39691351 -0.07201904 77.01980025 C-0.06085797 68.62332457 -0.05534747 60.22684821 -0.05032361 51.83036697 C-0.03985916 34.55356798 -0.02151366 17.2767893 0 0 Z " fill="#1C61AD" transform="translate(338,342)"/>
<path d="M0 0 C10.26353269 8.39528596 15.20669554 20.18404079 16.50390625 33.07421875 C16.75980298 38.8397287 16.6953125 44.61553273 16.6953125 50.38671875 C-4.7546875 50.38671875 -26.2046875 50.38671875 -48.3046875 50.38671875 C-44.40366757 61.53312185 -44.40366757 61.53312185 -35.7421875 67.69921875 C-27.15568229 70.78834324 -19.73115668 70.18441871 -11.47265625 66.46875 C-6.58718905 64.29877853 -6.58718905 64.29877853 -3.3046875 60.38671875 C-1.6546875 60.71671875 -0.0046875 61.04671875 1.6953125 61.38671875 C1.6953125 62.04671875 1.6953125 62.70671875 1.6953125 63.38671875 C2.25605469 63.62777344 2.81679688 63.86882812 3.39453125 64.1171875 C6.17990739 65.65410982 8.21511383 67.49541308 10.5078125 69.69921875 C11.31863281 70.45847656 12.12945313 71.21773438 12.96484375 72 C14.6953125 74.38671875 14.6953125 74.38671875 14.80078125 76.89453125 C11.76270367 83.74362488 1.65079214 89.03611707 -5.12109375 91.6796875 C-17.58015977 95.71383947 -32.67762751 96.00273746 -45.3046875 92.38671875 C-46.98950937 91.41761966 -48.65662089 90.41708481 -50.3046875 89.38671875 C-51.13355469 89.06574219 -51.96242188 88.74476563 -52.81640625 88.4140625 C-62.40393538 84.45563211 -70.38854546 75.20969753 -74.39916992 65.82592773 C-77.25206947 58.13078204 -77.97436974 51.11650508 -77.8671875 42.94921875 C-77.85550537 41.75997803 -77.84382324 40.5707373 -77.83178711 39.34545898 C-77.47142246 25.05754052 -73.09996156 15.04122738 -63.3046875 4.38671875 C-46.78668179 -10.39676294 -18.40569442 -12.82237707 0 0 Z M-42.9140625 21.0703125 C-45.56919861 24.53839759 -46.3046875 25.82907276 -46.3046875 30.38671875 C-35.0846875 30.38671875 -23.8646875 30.38671875 -12.3046875 30.38671875 C-13.38780525 23.88801227 -14.67919454 21.6729335 -19.3046875 17.38671875 C-26.79653252 12.7296259 -36.99659889 14.87995615 -42.9140625 21.0703125 Z " fill="#1C61AD" transform="translate(504.3046875,390.61328125)"/>
<path d="M0 0 C0.495 1.485 0.495 1.485 1 3 C2.3280532 3.35378466 3.66210062 3.6854938 5 4 C13.93847523 14.27924651 14.57098124 25.82837594 14.390625 38.82421875 C14.38314803 40.42274766 14.377462 42.02128585 14.37347412 43.61982727 C14.35833209 47.79074207 14.31915199 51.96108376 14.2746582 56.1317749 C14.23345596 60.40222424 14.21541029 64.6727678 14.1953125 68.94335938 C14.15264388 77.29586293 14.08239077 85.64779375 14 94 C4.43 94 -5.14 94 -15 94 C-15.03738281 89.74996094 -15.07476562 85.49992187 -15.11328125 81.12109375 C-15.15142378 77.71891495 -15.19249628 74.31679941 -15.2355423 70.91468048 C-15.28008859 67.33075621 -15.31954681 63.74694574 -15.34643555 60.1628418 C-15.37256487 56.70668193 -15.4130335 53.2509529 -15.46318626 49.79506111 C-15.4878363 47.84381509 -15.49787487 45.89240204 -15.50764465 43.94102478 C-15.56220581 33.68637606 -15.56220581 33.68637606 -20.796875 25.22265625 C-25.35947924 22.51246933 -28.56038605 21.12577633 -34 22 C-39.7966116 23.95403668 -43.11192605 26.45489802 -46 32 C-47.04904897 35.27609178 -47.1531438 38.3494494 -47.20532227 41.77832031 C-47.22526749 42.9392218 -47.24521271 44.10012329 -47.26576233 45.29620361 C-47.28247482 46.54423767 -47.29918732 47.79227173 -47.31640625 49.078125 C-47.33718735 50.35983582 -47.35796844 51.64154663 -47.37937927 52.96209717 C-47.43444747 56.36176272 -47.48392364 59.76148738 -47.53222656 63.16125488 C-47.58255332 66.63359805 -47.63812986 70.10585693 -47.69335938 73.578125 C-47.80124903 80.38535169 -47.90039024 87.19262693 -48 94 C-57.57 94 -67.14 94 -77 94 C-77.02254936 81.6308096 -77.04091412 69.26163275 -77.05181217 56.89242649 C-77.05704141 51.14954938 -77.0641398 45.40668699 -77.07543945 39.66381836 C-77.08626687 34.12660005 -77.09227652 28.58939596 -77.09487724 23.05216789 C-77.09673176 20.93455723 -77.10035286 18.81694738 -77.10573006 16.69934273 C-77.11293856 13.74428726 -77.11399102 10.78929129 -77.11352539 7.83422852 C-77.11712067 6.94950363 -77.12071594 6.06477875 -77.12442017 5.15324402 C-77.11405216 -0.88594784 -77.11405216 -0.88594784 -76 -2 C-73.92737924 -2.08767112 -71.85179706 -2.10695873 -69.77734375 -2.09765625 C-68.51728516 -2.09443359 -67.25722656 -2.09121094 -65.95898438 -2.08789062 C-64.61848891 -2.07953403 -63.27799412 -2.07106907 -61.9375 -2.0625 C-60.59310058 -2.0574866 -59.2486994 -2.05292342 -57.90429688 -2.04882812 C-54.60282059 -2.03699488 -51.30143197 -2.02050971 -48 -2 C-47.67 0.64 -47.34 3.28 -47 6 C-46.57332031 5.54109375 -46.14664062 5.0821875 -45.70703125 4.609375 C-33.13737088 -7.72703394 -15.05026509 -7.62174623 0 0 Z " fill="#1C61AC" transform="translate(310,388)"/>
<path d="M0 0 C1.35513954 0.00539291 1.35513954 0.00539291 2.73765564 0.01089478 C3.68389801 0.01074875 4.63014038 0.01060272 5.60505676 0.01045227 C8.74880729 0.0111518 11.89249938 0.01894608 15.03623962 0.02676392 C17.20957405 0.02862795 19.3829089 0.03005192 21.5562439 0.03105164 C27.28884533 0.03487795 33.0214216 0.0447092 38.75401306 0.05575562 C44.59873616 0.0659673 50.44346331 0.07054873 56.28819275 0.07559204 C67.76541915 0.08633137 79.24262024 0.10392908 90.71983337 0.12442017 C90.71983337 9.03442017 90.71983337 17.94442017 90.71983337 27.12442017 C80.37164671 29.71146683 69.37970382 27.50512982 58.71983337 27.12442017 C58.71983337 64.41442017 58.71983337 101.70442017 58.71983337 140.12442017 C48.81983337 140.12442017 38.91983337 140.12442017 28.71983337 140.12442017 C28.38983337 103.16442017 28.05983337 66.20442017 27.71983337 28.12442017 C16.49983337 27.79442017 5.27983337 27.46442017 -6.28016663 27.12442017 C-8.02562267 25.37896412 -7.41039822 22.96317799 -7.41297913 20.59317017 C-7.41426819 19.47297485 -7.41555725 18.35277954 -7.41688538 17.19863892 C-7.41301819 16.01914673 -7.409151 14.83965454 -7.40516663 13.62442017 C-7.40903381 12.44492798 -7.412901 11.26543579 -7.41688538 10.05020142 C-7.41559631 8.9300061 -7.41430725 7.80981079 -7.41297913 6.65567017 C-7.4118512 5.61990845 -7.41072327 4.58414673 -7.40956116 3.51699829 C-7.15000836 -1.2822799 -4.09434646 0.00688443 0 0 Z " fill="#1D62AD" transform="translate(638.2801666259766,341.8755798339844)"/>
<path d="M0 0 C10.23 0 20.46 0 31 0 C31 37.29 31 74.58 31 113 C56.245 112.505 56.245 112.505 82 112 C82.66 112.33 83.32 112.66 84 113 C84 121.91 84 130.82 84 140 C56.28 140 28.56 140 0 140 C0 93.8 0 47.6 0 0 Z " fill="#1C62AD" transform="translate(98,342)"/>
<path d="M0 0 C1.12591553 0.00523682 2.25183105 0.01047363 3.41186523 0.01586914 C4.62680664 0.0190918 5.84174805 0.02231445 7.09350586 0.02563477 C8.37290039 0.03401367 9.65229492 0.04239258 10.97045898 0.05102539 C12.2537207 0.05553711 13.53698242 0.06004883 14.85913086 0.06469727 C18.04211921 0.07652994 21.22501661 0.09301471 24.40795898 0.11352539 C27.08425786 4.05538633 26.68163682 8.33516041 26.65087891 12.90527344 C26.65277725 13.79182617 26.6546756 14.67837891 26.65663147 15.59179688 C26.66033385 18.5197028 26.64964473 21.4473603 26.63842773 24.37524414 C26.63723578 26.40737377 26.6367828 28.43950395 26.63703918 30.47163391 C26.63547538 34.72770645 26.62719179 38.98369474 26.61376953 43.23974609 C26.59674745 48.70780794 26.59295616 54.17577748 26.59371471 59.64386272 C26.59344348 63.83786406 26.5879703 68.03184503 26.58071327 72.22583961 C26.57752156 74.24296731 26.57555803 76.26009732 26.57481956 78.2772274 C26.57266314 81.08817904 26.56393509 83.89903062 26.55322266 86.70996094 C26.55390244 87.97151756 26.55390244 87.97151756 26.55459595 89.25856018 C26.5224356 94.99904877 26.5224356 94.99904877 25.40795898 96.11352539 C23.34740588 96.21346071 21.28343309 96.24433445 19.22045898 96.24633789 C17.96491211 96.24762695 16.70936523 96.24891602 15.41577148 96.25024414 C14.75867188 96.24814941 14.10157227 96.24605469 13.42456055 96.24389648 C11.41634564 96.23854773 9.40835439 96.2438423 7.40014648 96.25024414 C6.14459961 96.24895508 4.88905273 96.24766602 3.59545898 96.24633789 C2.43401367 96.24520996 1.27256836 96.24408203 0.07592773 96.24291992 C-2.59204102 96.11352539 -2.59204102 96.11352539 -3.59204102 95.11352539 C-3.69262345 92.1969491 -3.72819312 89.30401594 -3.72143555 86.38696289 C-3.72318787 85.47158752 -3.72494019 84.55621216 -3.72674561 83.61309814 C-3.73116562 80.5715549 -3.72822561 77.53006928 -3.72485352 74.48852539 C-3.72552651 72.38484689 -3.7264965 70.28116847 -3.72775269 68.17749023 C-3.72922986 63.7622809 -3.72707447 59.34709176 -3.72241211 54.93188477 C-3.71671481 49.25859978 -3.71999371 43.5853621 -3.72598457 37.91207886 C-3.72958965 33.56623983 -3.72845185 29.22041211 -3.72585678 24.87457275 C-3.72518736 22.78208409 -3.72601644 20.68959442 -3.72833633 18.59710693 C-3.73086199 15.67807273 -3.72702349 12.75911627 -3.72143555 9.84008789 C-3.72345978 8.96628479 -3.72548401 8.09248169 -3.72756958 7.19219971 C-3.70250386 0.16216109 -3.70250386 0.16216109 0 0 Z " fill="#1D62AD" transform="translate(193.592041015625,385.886474609375)"/>
<path d="M0 0 C8.91 0 17.82 0 27 0 C27 31.68 27 63.36 27 96 C17.76 96 8.52 96 -1 96 C-2.09128968 91.63484128 -2.09829449 87.66362527 -2.03759766 83.20825195 C-2.02959641 82.32169922 -2.02159515 81.43514648 -2.01335144 80.52172852 C-1.98548872 77.5938332 -1.95000999 74.66608765 -1.9140625 71.73828125 C-1.89229498 69.70615466 -1.87084537 67.67402465 -1.84970093 65.64189148 C-1.80422178 61.38580832 -1.7549953 57.12978923 -1.703125 52.8737793 C-1.63677049 47.40580055 -1.57955462 41.93777129 -1.52509499 36.46966267 C-1.48235826 32.27562652 -1.43490862 28.08165406 -1.38599777 23.88768578 C-1.36303132 21.87057265 -1.34153036 19.85344232 -1.32149124 17.83629799 C-1.29284147 15.02530534 -1.2578895 12.21446195 -1.22119141 9.40356445 C-1.2138649 8.5625267 -1.20653839 7.72148895 -1.19898987 6.85496521 C-1.11427649 1.11427649 -1.11427649 1.11427649 0 0 Z " fill="#1C60AC" transform="translate(862,386)"/>
<path d="M0 0 C1.35513954 0.00539291 1.35513954 0.00539291 2.73765564 0.01089478 C3.68389801 0.01074875 4.63014038 0.01060272 5.60505676 0.01045227 C8.74880729 0.0111518 11.89249938 0.01894608 15.03623962 0.02676392 C17.20957405 0.02862795 19.3829089 0.03005192 21.5562439 0.03105164 C27.28884533 0.03487795 33.0214216 0.0447092 38.75401306 0.05575562 C44.59873616 0.0659673 50.44346331 0.07054873 56.28819275 0.07559204 C67.76541915 0.08633137 79.24262024 0.10392908 90.71983337 0.12442017 C90.71983337 9.03442017 90.71983337 17.94442017 90.71983337 27.12442017 C80.37164671 29.71146683 69.37970382 27.50512982 58.71983337 27.12442017 C58.71983337 64.41442017 58.71983337 101.70442017 58.71983337 140.12442017 C48.81983337 140.12442017 38.91983337 140.12442017 28.71983337 140.12442017 C29.04983337 102.83442017 29.37983337 65.54442017 29.71983337 27.12442017 C30.04983337 27.12442017 30.37983337 27.12442017 30.71983337 27.12442017 C30.71983337 63.42442017 30.71983337 99.72442017 30.71983337 137.12442017 C39.29983337 137.12442017 47.87983337 137.12442017 56.71983337 137.12442017 C56.71983337 100.16442017 56.71983337 63.20442017 56.71983337 25.12442017 C67.27983337 25.12442017 77.83983337 25.12442017 88.71983337 25.12442017 C88.71983337 17.86442017 88.71983337 10.60442017 88.71983337 3.12442017 C58.02983337 3.12442017 27.33983337 3.12442017 -4.28016663 3.12442017 C-4.28016663 10.38442017 -4.28016663 17.64442017 -4.28016663 25.12442017 C6.60983337 25.12442017 17.49983337 25.12442017 28.71983337 25.12442017 C28.22483337 26.60942017 28.22483337 26.60942017 27.71983337 28.12442017 C22.89584423 28.00646588 18.07207379 27.88223999 13.24839783 27.75210571 C11.60619034 27.7086972 9.96393598 27.66702659 8.32164001 27.62710571 C5.96594592 27.56954577 3.6104891 27.50581125 1.25498962 27.44082642 C0.51644241 27.42411392 -0.2221048 27.40740143 -0.98303223 27.3901825 C-6.16629492 27.23829187 -6.16629492 27.23829187 -7.28016663 26.12442017 C-7.37976283 24.28282994 -7.41097073 22.4374505 -7.41297913 20.59317017 C-7.41426819 19.47297485 -7.41555725 18.35277954 -7.41688538 17.19863892 C-7.41301819 16.01914673 -7.409151 14.83965454 -7.40516663 13.62442017 C-7.40903381 12.44492798 -7.412901 11.26543579 -7.41688538 10.05020142 C-7.41559631 8.9300061 -7.41430725 7.80981079 -7.41297913 6.65567017 C-7.4118512 5.61990845 -7.41072327 4.58414673 -7.40956116 3.51699829 C-7.15000836 -1.2822799 -4.09434646 0.00688443 0 0 Z " fill="#1256A7" transform="translate(638.2801666259766,341.8755798339844)"/>
<path d="M0 0 C4.4070552 2.06272712 7.16283736 4.84890138 10 8.75 C11.7830503 14.54491348 12.21760172 20.38364918 9.3125 25.875 C6.98749412 29.01689984 5.2766933 30.89323413 2 33 C-0.8335409 33.39483767 -3.18451429 33.56233548 -6 33.5 C-6.69867187 33.51546875 -7.39734375 33.5309375 -8.1171875 33.546875 C-13.04843494 33.50965804 -15.55023713 32.48118148 -19 29 C-22.5984969 24.13716635 -23.66381191 20.48232407 -23.37890625 14.42578125 C-22.55251455 9.13517046 -19.98384487 5.54958182 -16 2.0625 C-11.06930141 -1.11859586 -5.62692451 -1.05224981 0 0 Z " fill="#1D61AD" transform="translate(881,341)"/>
<path d="M0 0 C0.9590625 -0.00257813 1.918125 -0.00515625 2.90625 -0.0078125 C5.5 0.125 5.5 0.125 8.5 1.125 C8.83 1.785 9.16 2.445 9.5 3.125 C10.49 3.455 11.48 3.785 12.5 4.125 C16.53406662 9.31165708 17.17744004 13.72362621 16.95703125 20.24609375 C16.28309132 24.49133927 14.59542458 27.20063836 11.5 30.125 C10.93539062 30.67027344 10.37078125 31.21554687 9.7890625 31.77734375 C4.78160754 34.72541877 -1.88873573 33.78514874 -7.5 33.125 C-10.47159672 31.80195694 -11.37673448 30.7201023 -13.5 28.125 C-14.098125 27.444375 -14.69625 26.76375 -15.3125 26.0625 C-17.84082077 21.93734506 -17.89800453 17.90105435 -17.5 13.125 C-16.07993439 8.85708543 -14.77261093 5.81915142 -10.75 3.625 C-10.0075 3.46 -9.265 3.295 -8.5 3.125 C-8.5 2.465 -8.5 1.805 -8.5 1.125 C-5.41493912 0.09664637 -3.2305728 -0.00868434 0 0 Z " fill="#1D61AD" transform="translate(204.5,340.875)"/>
<path d="M0 0 C1.75 0.1875 1.75 0.1875 4 1 C4.86625 2.175625 4.86625 2.175625 5.75 3.375 C9.06220359 7.23923752 13.26164303 8.66352067 18.22607243 9.27353168 C20.67918216 9.38446937 23.11514749 9.40007992 25.57069397 9.38095093 C26.97011353 9.38797089 26.97011353 9.38797089 28.3978042 9.39513266 C31.50761854 9.40704872 34.61698944 9.39763862 37.72680664 9.38818359 C39.96290849 9.39225076 42.19900833 9.39759346 44.43510437 9.40411377 C50.49694104 9.41777497 56.5586243 9.41249377 62.62046361 9.40297651 C68.96731173 9.39537473 75.31414684 9.40242689 81.66099548 9.40713501 C93.0000525 9.41293995 104.33903171 9.40362523 115.67807316 9.388357 C125.95183914 9.37495136 136.22550343 9.37728567 146.49926758 9.39111328 C158.44193726 9.40717966 170.3845452 9.41313782 182.32722944 9.40427649 C188.64475822 9.39960079 194.96221701 9.39897245 201.27974129 9.40888596 C207.21825316 9.41755408 213.15657302 9.41153628 219.09506416 9.39420319 C221.27391745 9.39023774 223.45278691 9.39137337 225.63163376 9.39799118 C228.60673695 9.40619414 231.58122559 9.39589984 234.55628967 9.38095093 C235.84822372 9.39098918 235.84822372 9.39098918 237.16625744 9.40123022 C243.85541219 9.33607869 249.32534223 7.92591067 254.4375 3.3125 C255.7059375 2.1678125 255.7059375 2.1678125 257 1 C257.33 1.99 257.66 2.98 258 4 C253.45275576 9.45669309 247.64881901 12.287703 240.60060024 13.36763859 C238.14092449 13.5098025 235.7105529 13.53387884 233.24694824 13.50793457 C232.31849327 13.51417453 231.39003829 13.5204145 230.43344831 13.52684355 C227.35054913 13.54268258 224.26845064 13.53020495 221.18554688 13.51757812 C218.96386762 13.52300327 216.74219196 13.53012813 214.52052307 13.53881836 C208.50608257 13.55700771 202.49191744 13.55000215 196.47747231 13.53730202 C190.17341004 13.52715168 183.86937084 13.53657335 177.56530762 13.54284668 C166.30281293 13.5505824 155.04043139 13.5381775 143.77796334 13.51780933 C133.5818942 13.49994012 123.38600726 13.50304479 113.18994141 13.52148438 C101.32816007 13.54292659 89.46646687 13.5508393 77.60466242 13.53903532 C71.33343795 13.53280981 65.06233878 13.53193894 58.79112244 13.54518127 C52.89437855 13.55676385 46.99797764 13.54866967 41.10127068 13.52560425 C38.94141648 13.52033007 36.78153327 13.52180871 34.62169075 13.53065491 C31.66509239 13.54164494 28.70958151 13.52780482 25.75305176 13.50793457 C24.48210828 13.5213189 24.48210828 13.5213189 23.18548918 13.53497362 C15.56957966 13.43622408 8.87538386 11.34725213 2.9375 6.5 C1.1515947 4.19560607 0.31806488 2.86258388 0 0 Z " fill="#0E52A4" transform="translate(906,533)"/>
<path d="M0 0 C28 0 28 0 30 1 C30 37.3 30 73.6 30 111 C28.515 111.495 28.515 111.495 27 112 C27 75.37 27 38.74 27 1 C18.42 1 9.84 1 1 1 C1 45.55 1 90.1 1 136 C27.4 136 53.8 136 81 136 C81 128.41 81 120.82 81 113 C63.84 113 46.68 113 29 113 C29 112.67 29 112.34 29 112 C46.49 112 63.98 112 82 112 C82 120.25 82 128.5 82 137 C54.94 137 27.88 137 0 137 C0 91.79 0 46.58 0 0 Z " fill="#114EA2" transform="translate(99,344)"/>
<path d="M0 0 C1.12591553 0.00523682 2.25183105 0.01047363 3.41186523 0.01586914 C4.62680664 0.0190918 5.84174805 0.02231445 7.09350586 0.02563477 C8.37290039 0.03401367 9.65229492 0.04239258 10.97045898 0.05102539 C12.2537207 0.05553711 13.53698242 0.06004883 14.85913086 0.06469727 C18.04211921 0.07652994 21.22501661 0.09301471 24.40795898 0.11352539 C27.08425786 4.05538633 26.68163682 8.33516041 26.65087891 12.90527344 C26.65277725 13.79182617 26.6546756 14.67837891 26.65663147 15.59179688 C26.66033385 18.5197028 26.64964473 21.4473603 26.63842773 24.37524414 C26.63723578 26.40737377 26.6367828 28.43950395 26.63703918 30.47163391 C26.63547538 34.72770645 26.62719179 38.98369474 26.61376953 43.23974609 C26.59674745 48.70780794 26.59295616 54.17577748 26.59371471 59.64386272 C26.59344348 63.83786406 26.5879703 68.03184503 26.58071327 72.22583961 C26.57752156 74.24296731 26.57555803 76.26009732 26.57481956 78.2772274 C26.57266314 81.08817904 26.56393509 83.89903062 26.55322266 86.70996094 C26.55390244 87.97151756 26.55390244 87.97151756 26.55459595 89.25856018 C26.5224356 94.99904877 26.5224356 94.99904877 25.40795898 96.11352539 C23.34740588 96.21346071 21.28343309 96.24433445 19.22045898 96.24633789 C17.96491211 96.24762695 16.70936523 96.24891602 15.41577148 96.25024414 C14.75867188 96.24814941 14.10157227 96.24605469 13.42456055 96.24389648 C11.41634564 96.23854773 9.40835439 96.2438423 7.40014648 96.25024414 C6.14459961 96.24895508 4.88905273 96.24766602 3.59545898 96.24633789 C2.43401367 96.24520996 1.27256836 96.24408203 0.07592773 96.24291992 C-2.59204102 96.11352539 -2.59204102 96.11352539 -3.59204102 95.11352539 C-3.69262345 92.1969491 -3.72819312 89.30401594 -3.72143555 86.38696289 C-3.72318787 85.47158752 -3.72494019 84.55621216 -3.72674561 83.61309814 C-3.73116562 80.5715549 -3.72822561 77.53006928 -3.72485352 74.48852539 C-3.72552651 72.38484689 -3.7264965 70.28116847 -3.72775269 68.17749023 C-3.72922986 63.7622809 -3.72707447 59.34709176 -3.72241211 54.93188477 C-3.71671481 49.25859978 -3.71999371 43.5853621 -3.72598457 37.91207886 C-3.72958965 33.56623983 -3.72845185 29.22041211 -3.72585678 24.87457275 C-3.72518736 22.78208409 -3.72601644 20.68959442 -3.72833633 18.59710693 C-3.73086199 15.67807273 -3.72702349 12.75911627 -3.72143555 9.84008789 C-3.72345978 8.96628479 -3.72548401 8.09248169 -3.72756958 7.19219971 C-3.70250386 0.16216109 -3.70250386 0.16216109 0 0 Z M-0.59204102 3.11352539 C-0.59204102 32.81352539 -0.59204102 62.51352539 -0.59204102 93.11352539 C7.32795898 93.11352539 15.24795898 93.11352539 23.40795898 93.11352539 C23.40795898 63.41352539 23.40795898 33.71352539 23.40795898 3.11352539 C15.48795898 3.11352539 7.56795898 3.11352539 -0.59204102 3.11352539 Z " fill="#1556A6" transform="translate(193.592041015625,385.886474609375)"/>
<path d="M0 0 C0.99 0.33 1.98 0.66 3 1 C3 46.21 3 91.42 3 138 C12.24 138 21.48 138 31 138 C31 138.66 31 139.32 31 140 C26.74585377 140.02465622 22.49174502 140.04283899 18.23754883 140.05493164 C16.78929927 140.05997101 15.34105483 140.06680253 13.89282227 140.07543945 C11.81525412 140.08752247 9.73775303 140.09323211 7.66015625 140.09765625 C6.40855713 140.10289307 5.15695801 140.10812988 3.86743164 140.11352539 C1 140 1 140 0 139 C-0.09639184 137.20305962 -0.12187425 135.40229107 -0.12025452 133.60276794 C-0.12162918 132.43182587 -0.12300385 131.26088379 -0.12442017 130.05445862 C-0.12082489 128.75830124 -0.11722961 127.46214386 -0.11352539 126.12670898 C-0.11324352 124.75712079 -0.11340125 123.38753244 -0.1139679 122.01794434 C-0.11425588 118.28877052 -0.10835909 114.55962859 -0.10139394 110.83046222 C-0.09516047 106.93735587 -0.09455661 103.04424887 -0.09336853 99.15113831 C-0.09025519 91.77401854 -0.08204178 84.39691351 -0.07201904 77.01980025 C-0.06085797 68.62332457 -0.05534747 60.22684821 -0.05032361 51.83036697 C-0.03985916 34.55356944 -0.02225968 17.27678628 0 0 Z " fill="#1250A4" transform="translate(338,342)"/>
<path d="M0 0 C1.8125 0.0625 1.8125 0.0625 4 1 C6.94595722 6.46473569 7.43086239 10.93150893 7.38095093 17.06648254 C7.3856309 17.95718325 7.39031087 18.84788395 7.39513266 19.76557559 C7.40706051 22.73815743 7.39763418 25.71027639 7.38818359 28.68286133 C7.39225012 30.81855538 7.39759246 32.95424733 7.40411377 35.0899353 C7.41777925 40.88084527 7.41249291 46.67159474 7.40297651 52.46250749 C7.39538093 58.51941755 7.40242479 64.57631388 7.40713501 70.63322449 C7.41259075 80.79904652 7.40540347 90.96480313 7.39111328 101.13061523 C7.37476521 112.89652986 7.38009169 124.6622887 7.3965925 136.42819959 C7.41018634 146.52426803 7.412138 156.62028946 7.40427649 166.71636409 C7.39959122 172.74926255 7.39899899 178.78208766 7.40888596 184.81498146 C7.41752354 190.48097063 7.41159267 196.14675782 7.39420319 201.81272507 C7.39022207 203.8969241 7.39139994 205.98114 7.39799118 208.06533241 C7.40613225 210.89993304 7.39597601 213.7338774 7.38095093 216.56843567 C7.38764309 217.40217093 7.39433526 218.23590619 7.40123022 219.09490615 C7.37752342 221.38448811 7.37752342 221.38448811 7 225 C5.515 225.99 5.515 225.99 4 227 C4.00553076 225.33352165 4.00553076 225.33352165 4.01117325 223.63337708 C4.09997199 196.60049591 4.16570329 169.56763366 4.20724869 142.53463745 C4.22787375 129.46167823 4.25599348 116.38881535 4.30175781 103.31591797 C4.34162705 91.9215644 4.36743322 80.52728061 4.37635398 69.13285923 C4.38156852 63.09960352 4.39382383 57.06654744 4.42292023 51.03335571 C4.45009045 45.35348775 4.45844161 39.67390147 4.45243073 33.99397469 C4.45353023 31.91067028 4.46147435 29.82735636 4.4768219 27.7441082 C4.4967747 24.89579294 4.49191968 22.04853595 4.48101807 19.20019531 C4.49849512 17.96864574 4.49849512 17.96864574 4.51632524 16.71221638 C4.46337514 11.58072176 3.42723207 8.07717011 0.85808921 3.62186813 C0 2 0 2 0 0 Z " fill="#0A449D" transform="translate(1160,304)"/>
<path d="M0 0 C1.32 0.33 2.64 0.66 4 1 C4 46.54 4 92.08 4 139 C3.01 139 2.02 139 1 139 C0.505 70.195 0.505 70.195 0 0 Z " fill="#072DBB" transform="translate(623,342)"/>
<path d="M0 0 C1.75 0.1875 1.75 0.1875 4 1 C4.86625 2.175625 4.86625 2.175625 5.75 3.375 C9.06220359 7.23923752 13.26164303 8.66352067 18.22607243 9.27353168 C20.67918216 9.38446937 23.11514749 9.40007992 25.57069397 9.38095093 C26.97011353 9.38797089 26.97011353 9.38797089 28.3978042 9.39513266 C31.50761854 9.40704872 34.61698944 9.39763862 37.72680664 9.38818359 C39.96290849 9.39225076 42.19900833 9.39759346 44.43510437 9.40411377 C50.49694104 9.41777497 56.5586243 9.41249377 62.62046361 9.40297651 C68.96731173 9.39537473 75.31414684 9.40242689 81.66099548 9.40713501 C93.0000525 9.41293995 104.33903171 9.40362523 115.67807316 9.388357 C125.95183914 9.37495136 136.22550343 9.37728567 146.49926758 9.39111328 C158.44193726 9.40717966 170.3845452 9.41313782 182.32722944 9.40427649 C188.64475822 9.39960079 194.96221701 9.39897245 201.27974129 9.40888596 C207.21825316 9.41755408 213.15657302 9.41153628 219.09506416 9.39420319 C221.27391745 9.39023774 223.45278691 9.39137337 225.63163376 9.39799118 C228.60673695 9.40619414 231.58122559 9.39589984 234.55628967 9.38095093 C235.84822372 9.39098918 235.84822372 9.39098918 237.16625744 9.40123022 C243.85541219 9.33607869 249.32534223 7.92591067 254.4375 3.3125 C255.7059375 2.1678125 255.7059375 2.1678125 257 1 C257.33 1.99 257.66 2.98 258 4 C253.9316765 8.8819882 249.18463746 11.45132656 243 13 C242.44364176 12.85002626 241.88728352 12.70005253 241.31406593 12.54553413 C238.07487946 11.78190559 234.88095839 11.86248168 231.57260132 11.87301636 C230.44577153 11.87067637 230.44577153 11.87067637 229.29617751 11.86828911 C226.77604505 11.86429757 224.25597276 11.86746204 221.73583984 11.87060547 C219.9283698 11.86925027 218.12090003 11.86746966 216.31343079 11.86529541 C211.39211336 11.86072547 206.47081684 11.86251143 201.54949903 11.8656745 C196.36971958 11.86821193 191.18994188 11.86585563 186.01016235 11.86428833 C177.27890708 11.8624658 168.54766024 11.86487004 159.81640625 11.86962891 C149.81044842 11.87502061 139.80451112 11.87334679 129.79855382 11.8678025 C121.16021947 11.86321201 112.52189119 11.86265089 103.88355601 11.86524117 C98.74723072 11.86677838 93.61091493 11.86707085 88.4745903 11.86370468 C83.63224764 11.86085373 78.78992586 11.86210169 73.94758534 11.86753678 C72.0930403 11.86956814 70.2384942 11.87081094 68.38394809 11.87123084 C58.92249795 11.87726319 49.48091756 11.97278706 40.02716064 12.37213135 C39.23976852 12.40366417 38.45237639 12.43519698 37.64112389 12.46768534 C33.99145688 12.61593429 30.34578062 12.78596143 26.69952965 13.00259209 C17.38718562 13.42326449 10.29547425 12.5065096 2.9375 6.5 C1.1515947 4.19560607 0.31806488 2.86258388 0 0 Z " fill="#0545A0" transform="translate(906,533)"/>
<path d="M0 0 C1.14066058 3.42198175 0.87052121 3.88232089 -0.4140625 7.0703125 C-2.19381628 12.08893405 -2.46279882 16.58461051 -2.375 21.875 C-2.36194824 23.18936035 -2.36194824 23.18936035 -2.34863281 24.53027344 C-2.20129308 31.04462191 -1.44340874 36.91272517 1 43 C1.25523437 43.68707031 1.51046875 44.37414062 1.7734375 45.08203125 C7.24853767 57.81540641 17.81503046 63.89962477 30 69 C34.9635062 70.51959651 40.0435078 70.18425867 45.1875 70.1875 C46.19103516 70.19974609 47.19457031 70.21199219 48.22851562 70.22460938 C61.96654746 70.25142401 72.76669373 66.40357874 83 57 C82.505 55.02 82.505 55.02 82 53 C83.65 53.33 85.3 53.66 87 54 C86.74878775 57.56093367 86.20955481 58.79826948 83.59375 61.31640625 C67.45515047 73.03319253 52.09431695 76.09013405 32.3125 73.1875 C28.21113465 72.50877334 25.51077582 71.19492599 22 69 C21.17113281 68.67902344 20.34226562 68.35804688 19.48828125 68.02734375 C9.88715779 64.06330063 1.95887813 54.82838216 -2.10107422 45.45898438 C-5.06290363 37.5485246 -5.55073218 30.38889937 -5.375 22 C-5.37371094 20.79988281 -5.37242187 19.59976562 -5.37109375 18.36328125 C-5.27470172 8.79904996 -5.27470172 8.79904996 -3 5 C-2.195625 3.63875 -2.195625 3.63875 -1.375 2.25 C-0.92125 1.5075 -0.4675 0.765 0 0 Z " fill="#0E50A5" transform="translate(432,411)"/>
<path d="M0 0 C0.33 0 0.66 0 1 0 C1 26.4 1 52.8 1 80 C-11.21 80 -23.42 80 -36 80 C-36 58.22 -36 36.44 -36 14 C-35.67 14 -35.34 14 -35 14 C-34.19109573 22.20449403 -33.86279234 30.30521034 -33.90234375 38.546875 C-33.90446617 40.25269745 -33.90446617 40.25269745 -33.90663147 41.99298096 C-33.91217058 45.57868223 -33.92471123 49.16431802 -33.9375 52.75 C-33.94252289 55.20051992 -33.9470844 57.65104084 -33.95117188 60.1015625 C-33.96126354 66.06775306 -33.9808503 72.03380436 -34 78 C-22.78 78 -11.56 78 0 78 C0 52.26 0 26.52 0 0 Z " fill="#2765AE" transform="translate(1118,424)"/>
<path d="M0 0 C0.66 0 1.32 0 2 0 C2.33 1.32 2.66 2.64 3 4 C3.66 4 4.32 4 5 4 C5.268125 4.51046875 5.53625 5.0209375 5.8125 5.546875 C10.40753063 14.07186603 15.89938373 21.97088196 21.40625 29.921875 C21.99857422 30.77990723 22.59089844 31.63793945 23.20117188 32.52197266 C24.39079433 34.24343772 25.58474137 35.9619231 26.78320312 37.67724609 C27.60208008 38.86181396 27.60208008 38.86181396 28.4375 40.0703125 C28.93121094 40.77945801 29.42492187 41.48860352 29.93359375 42.21923828 C31 44 31 44 31 46 C40.57 45.67 50.14 45.34 60 45 C60.495 44.01 60.495 44.01 61 43 C63 44.3125 63 44.3125 65 46 C65 46.99 65 47.98 65 49 C60.07048719 49.12357051 55.14187468 49.21432177 50.21118164 49.2746582 C48.53393859 49.29980792 46.8568052 49.33393259 45.17993164 49.37719727 C42.76941915 49.4378346 40.36035448 49.46620284 37.94921875 49.48828125 C36.82407112 49.52699089 36.82407112 49.52699089 35.67619324 49.56648254 C33.5534668 49.56762695 33.5534668 49.56762695 30 49 C27.99233645 46.58142695 27 45.16303722 27 42 C26.34 42 25.68 42 25 42 C23.6328125 40.27734375 23.6328125 40.27734375 22.125 37.9375 C21.63257813 37.18339844 21.14015625 36.42929687 20.6328125 35.65234375 C19.42090069 33.68371188 18.25760053 31.68498056 17.12109375 29.671875 C14.90457329 25.76282544 12.4456831 22.0390509 9.9375 18.3125 C9.50373047 17.66216797 9.06996094 17.01183594 8.62304688 16.34179688 C6.49411397 13.16297926 4.33943545 10.02976067 2 7 C1.67 8.65 1.34 10.3 1 12 C0.67 12 0.34 12 0 12 C0 8.04 0 4.08 0 0 Z " fill="#1154A7" transform="translate(368,433)"/>
<path d="M0 0 C2.43903812 2.43903812 2.95734149 4.10439856 3.12025452 7.52470398 C3.11803391 8.53064102 3.11581329 9.53657806 3.11352539 10.57299805 C3.11344986 11.71395432 3.11337433 12.85491058 3.11329651 14.03044128 C3.10813522 15.26176285 3.10297394 16.49308441 3.09765625 17.76171875 C3.0962413 19.02264847 3.09482635 20.28357819 3.09336853 21.5827179 C3.08871575 24.93151709 3.07973342 28.28024811 3.06866455 31.62902832 C3.05842687 35.04760143 3.05386586 38.46618159 3.04882812 41.88476562 C3.03779099 48.58986504 3.0205222 55.29492317 3 62 C10.92 62 18.84 62 27 62 C27 41.54 27 21.08 27 0 C27.33 0 27.66 0 28 0 C28 21.12 28 42.24 28 64 C18.76 64 9.52 64 0 64 C0 42.88 0 21.76 0 0 Z " fill="#0E51A4" transform="translate(295,417)"/>
<path d="M0 0 C0.96647461 0.00757324 1.93294922 0.01514648 2.92871094 0.02294922 C15.5405554 0.31236675 27.00138076 3.87271277 36.52734375 12.5 C38.25 14.4375 38.25 14.4375 38.25 16.4375 C35.22570641 16.10146738 34.28364846 15.47420741 32.1875 13.1875 C25.353163 5.95484275 14.22838396 3.80702484 4.7109375 3.21875 C-6.47422319 2.94538558 -16.51659992 3.67815943 -25.2265625 11.23046875 C-26.75 12.4375 -26.75 12.4375 -28.75 12.4375 C-29.41 13.7575 -30.07 15.0775 -30.75 16.4375 C-31.41 16.4375 -32.07 16.4375 -32.75 16.4375 C-33.41 17.7575 -34.07 19.0775 -34.75 20.4375 C-35.41 20.4375 -36.07 20.4375 -36.75 20.4375 C-36.42 15.1575 -36.09 9.8775 -35.75 4.4375 C-35.42 4.4375 -35.09 4.4375 -34.75 4.4375 C-34.75 8.0675 -34.75 11.6975 -34.75 15.4375 C-33.574375 14.385625 -32.39875 13.33375 -31.1875 12.25 C-21.32749207 3.68736153 -13.30609817 -0.14639961 0 0 Z " fill="#04419E" transform="translate(1072.75,382.5625)"/>
<path d="M0 0 C10.23 0 20.46 0 31 0 C31 0.99 31 1.98 31 3 C16.15 2.505 16.15 2.505 1 2 C1 46.88 1 91.76 1 138 C0.67 138 0.34 138 0 138 C0 92.46 0 46.92 0 0 Z " fill="#2F6EB3" transform="translate(98,342)"/>
<path d="M0 0 C1.12591553 0.00523682 2.25183105 0.01047363 3.41186523 0.01586914 C4.62680664 0.0190918 5.84174805 0.02231445 7.09350586 0.02563477 C8.37290039 0.03401367 9.65229492 0.04239258 10.97045898 0.05102539 C12.2537207 0.05553711 13.53698242 0.06004883 14.85913086 0.06469727 C18.04211921 0.07652994 21.22501661 0.09301471 24.40795898 0.11352539 C27.08769927 4.04649438 26.63432388 8.27313045 26.54321289 12.8293457 C26.53375137 13.70775116 26.52428986 14.58615662 26.51454163 15.49118042 C26.48089219 18.39155012 26.43276899 21.29148984 26.38452148 24.19165039 C26.35835146 26.2037443 26.33308468 28.21585015 26.3086853 30.22796631 C26.24206289 35.52171948 26.16316367 40.81522143 26.08172607 46.10876465 C26.00077828 51.5112952 25.93141539 56.91397304 25.86108398 62.31665039 C25.7213947 72.91578528 25.56873822 83.51469091 25.40795898 94.11352539 C25.07795898 94.11352539 24.74795898 94.11352539 24.40795898 94.11352539 C24.40795898 63.75352539 24.40795898 33.39352539 24.40795898 2.11352539 C15.82795898 2.11352539 7.24795898 2.11352539 -1.59204102 2.11352539 C-1.59204102 15.31352539 -1.59204102 28.51352539 -1.59204102 42.11352539 C-1.92204102 42.11352539 -2.25204102 42.11352539 -2.59204102 42.11352539 C-2.75925266 36.29296751 -2.91985254 30.47227993 -3.07421875 24.65136719 C-3.12771996 22.6695459 -3.18305532 20.68777327 -3.24023438 18.70605469 C-3.32191956 15.86412046 -3.39709274 13.02207877 -3.47094727 10.17993164 C-3.49798233 9.28826797 -3.5250174 8.39660431 -3.5528717 7.47792053 C-3.60480016 5.35705093 -3.60393013 3.2349973 -3.59204102 1.11352539 C-2.59204102 0.11352539 -2.59204102 0.11352539 0 0 Z " fill="#235CAA" transform="translate(193.592041015625,385.886474609375)"/>
<path d="M0 0 C4.50972836 6.01297114 4.04239524 11.50983504 4.01953125 18.78515625 C4.01671143 19.95054932 4.0138916 21.11594238 4.01098633 22.31665039 C4.00736084 23.20215576 4.00373535 24.08766113 4 25 C-4.31000792 25.04628625 -12.61996221 25.0818502 -20.93006706 25.10362434 C-24.78854797 25.11407343 -28.64694085 25.128253 -32.50537109 25.15087891 C-36.22712192 25.1725674 -39.94878794 25.18456014 -43.67059708 25.18975449 C-45.09241191 25.19345745 -46.51422197 25.20068819 -47.93600082 25.21146011 C-49.92327114 25.22592119 -51.91062631 25.22681646 -53.89794922 25.22705078 C-55.03046112 25.231492 -56.16297302 25.23593323 -57.32980347 25.24050903 C-60 25 -60 25 -62 23 C-41.21 23 -20.42 23 1 23 C0.67 15.41 0.34 7.82 0 0 Z " fill="#073E9A" transform="translate(517,416)"/>
<path d="M0 0 C3.31312242 1.65417079 6.15422925 3.63906426 9 6 C8.67 6.66 8.34 7.32 8 8 C5.68604481 6.84302241 3.43002472 5.67068095 1.1875 4.375 C-3.16832346 2.49601733 -6.52626698 2.17851643 -11.08203125 3.69140625 C-15.92655478 5.8395345 -18.49865453 8.19741671 -21 13 C-22.04904897 16.27609178 -22.1531438 19.3494494 -22.20532227 22.77832031 C-22.22526749 23.9392218 -22.24521271 25.10012329 -22.26576233 26.29620361 C-22.29083107 28.1682547 -22.29083107 28.1682547 -22.31640625 30.078125 C-22.33718735 31.35983582 -22.35796844 32.64154663 -22.37937927 33.96209717 C-22.43444747 37.36176272 -22.48392364 40.76148738 -22.53222656 44.16125488 C-22.58255332 47.63359805 -22.63812986 51.10585693 -22.69335938 54.578125 C-22.80124903 61.38535169 -22.90039024 68.19262693 -23 75 C-32.24 75 -41.48 75 -51 75 C-51 74.67 -51 74.34 -51 74 C-42.09 74 -33.18 74 -24 74 C-24.10699219 69.89433594 -24.21398437 65.78867187 -24.32421875 61.55859375 C-24.40098699 58.27120296 -24.47458253 54.98377497 -24.5460434 51.69626617 C-24.62218302 48.23335927 -24.70382006 44.77078799 -24.79907227 41.30834961 C-24.90826962 37.32959596 -24.99185339 33.35049679 -25.07421875 29.37109375 C-25.11157639 28.13854355 -25.14893402 26.90599335 -25.18742371 25.63609314 C-25.32547272 17.72246149 -24.59233829 12.98109095 -20.25 6.3125 C-14.36115422 0.26007517 -8.31542587 -1.60045854 0 0 Z " fill="#1A5DAA" transform="translate(285,407)"/>
<path d="M0 0 C0.33 0 0.66 0 1 0 C1.01030746 1.12086502 1.02061493 2.24173004 1.03123474 3.39656067 C1.12888821 13.94715709 1.23161465 24.49769348 1.33933926 35.04819202 C1.39456081 40.47261829 1.44797966 45.89704995 1.49731445 51.3215332 C1.54496923 56.55406638 1.59731256 61.78653338 1.65294075 67.01898766 C1.67335923 69.01770065 1.69207316 71.01643179 1.70907402 73.01517677 C1.73312914 75.80941976 1.76318233 78.60353746 1.79467773 81.39770508 C1.80331093 82.64387604 1.80331093 82.64387604 1.81211853 83.91522217 C1.85423496 87.19113922 1.9569704 89.8709112 3 93 C2 94 2 94 -0.68383789 94.11352539 C-1.85164795 94.10828857 -3.01945801 94.10305176 -4.22265625 94.09765625 C-6.11274414 94.09282227 -6.11274414 94.09282227 -8.04101562 94.08789062 C-9.38151109 94.07953403 -10.72200588 94.07106907 -12.0625 94.0625 C-13.40689942 94.0574866 -14.7513006 94.05292342 -16.09570312 94.04882812 C-19.39717941 94.03699488 -22.69856803 94.02050971 -26 94 C-25.67 93.01 -25.34 92.02 -25 91 C-16.75 91 -8.5 91 0 91 C0 60.97 0 30.94 0 0 Z " fill="#0B4FA2" transform="translate(217,388)"/>
<path d="M0 0 C1.22879883 -0.01836914 1.22879883 -0.01836914 2.48242188 -0.03710938 C4.59376936 -0.04232258 6.70471809 0.06473679 8.8125 0.1875 C9.4725 0.8475 10.1325 1.5075 10.8125 2.1875 C11.8025 2.8475 12.7925 3.5075 13.8125 4.1875 C13.11801758 4.16655273 12.42353516 4.14560547 11.70800781 4.12402344 C-9.97631752 3.28857365 -9.97631752 3.28857365 -29.1875 12.1875 C-29.8475 12.1875 -30.5075 12.1875 -31.1875 12.1875 C-31.414375 12.744375 -31.64125 13.30125 -31.875 13.875 C-33.55180501 16.82937072 -35.76074352 18.81852343 -38.1875 21.1875 C-39.54305293 22.83614545 -40.88381653 24.49753995 -42.1875 26.1875 C-42.89453125 24.48828125 -42.89453125 24.48828125 -43.1875 22.1875 C-36.96568003 11.033066 -26.13648834 4.60149667 -14.1875 1.1875 C-9.48243342 -0.04594627 -4.83189033 0.00385626 0 0 Z " fill="#1858A9" transform="translate(476.1875,382.8125)"/>
<path d="M0 0 C0.66 0 1.32 0 2 0 C2.804375 1.03125 3.60875 2.0625 4.4375 3.125 C9.05689367 8.73670787 15.91412874 12.46994462 23 14 C37.45676763 15.29551482 47.3708103 13.12919482 59 4 C58.68416856 6.94776015 58.06918843 7.93488148 55.875 10 C46.92796976 16.22402103 38.02065774 19.17127763 27 18 C20.62493459 16.79591261 14.62606238 15.28186972 9 12 C9 11.34 9 10.68 9 10 C8.443125 9.773125 7.88625 9.54625 7.3125 9.3125 C4.31958801 7.61382022 2.26472763 5.57927313 0 3 C0 2.01 0 1.02 0 0 Z " fill="#0C4EA4" transform="translate(538,467)"/>
<path d="M0 0 C8.91 0 17.82 0 27 0 C27.33 0.66 27.66 1.32 28 2 C19.42 2 10.84 2 2 2 C2 16.85 2 31.7 2 47 C1.34 47 0.68 47 0 47 C0 31.49 0 15.98 0 0 Z " fill="#2869B0" transform="translate(596,342)"/>
<path d="M0 0 C0.66 0.33 1.32 0.66 2 1 C2 8.92 2 16.84 2 25 C12.89 25 23.78 25 35 25 C34.505 26.485 34.505 26.485 34 28 C29.17601086 27.88204571 24.35224042 27.75781982 19.52856445 27.62768555 C17.88635697 27.58427703 16.24410261 27.54260642 14.60180664 27.50268555 C12.24611255 27.4451256 9.89065572 27.38139108 7.53515625 27.31640625 C6.79660904 27.29969376 6.05806183 27.28298126 5.2971344 27.26576233 C0.11387171 27.11387171 0.11387171 27.11387171 -1 26 C-1.09959621 24.15840977 -1.13080411 22.31303033 -1.1328125 20.46875 C-1.13410156 19.34855469 -1.13539063 18.22835938 -1.13671875 17.07421875 C-1.13285156 15.89472656 -1.12898437 14.71523438 -1.125 13.5 C-1.12886719 12.32050781 -1.13273438 11.14101563 -1.13671875 9.92578125 C-1.13542969 8.80558594 -1.13414062 7.68539063 -1.1328125 6.53125 C-1.13168457 5.49548828 -1.13055664 4.45972656 -1.12939453 3.39257812 C-1 1 -1 1 0 0 Z " fill="#0C58A0" transform="translate(632,342)"/>
<path d="M0 0 C4.59156092 2.60638605 8.24600205 5.32265658 11.15625 9.8203125 C10.82625 10.4803125 10.49625 11.1403125 10.15625 11.8203125 C9.49625 11.8203125 8.83625 11.8203125 8.15625 11.8203125 C6.89453125 10.39453125 6.89453125 10.39453125 5.46875 8.5078125 C1.43183143 3.67914961 -2.50015159 2.04351235 -8.78125 1.4453125 C-14.25680432 1.72014727 -18.7835354 2.91123333 -22.8671875 6.6953125 C-25.55071099 9.67457123 -27.56598868 11.98702854 -28.84375 15.8203125 C-29.50375 15.8203125 -30.16375 15.8203125 -30.84375 15.8203125 C-30.84375 19.1203125 -30.84375 22.4203125 -30.84375 25.8203125 C-31.17375 25.8203125 -31.50375 25.8203125 -31.84375 25.8203125 C-32.40391598 14.16056146 -32.40391598 14.16056146 -28.84375 8.8203125 C-28.328125 7.9746875 -27.8125 7.1290625 -27.28125 6.2578125 C-20.01237977 -1.01105773 -9.72470951 -4.03415147 0 0 Z " fill="#0C4DA3" transform="translate(971.84375,332.1796875)"/>
<path d="M0 0 C9.57 0 19.14 0 29 0 C28.67 24.42 28.34 48.84 28 74 C27.67 74 27.34 74 27 74 C27 50.24 27 26.48 27 2 C18.42 2 9.84 2 1 2 C0.67 1.34 0.34 0.68 0 0 Z " fill="#2968B0" transform="translate(340,342)"/>
<path d="M0 0 C2.23828125 1.4375 2.23828125 1.4375 4.3125 3 C5.00988281 3.515625 5.70726562 4.03125 6.42578125 4.5625 C7.20501953 5.2740625 7.20501953 5.2740625 8 6 C8 6.66 8 7.32 8 8 C4.83245565 7.37641185 2.62021505 6.27813869 -0.0625 4.5 C-5.31139621 1.03431805 -9.79329845 0.36341523 -16 1 C-19.30101131 2.39924945 -19.30101131 2.39924945 -22 4 C-22.99 4 -23.98 4 -25 4 C-26.86551426 7.58752742 -28.42535928 11.27812193 -30 15 C-30.66 15 -31.32 15 -32 15 C-32.33 16.98 -32.66 18.96 -33 21 C-33.33 21 -33.66 21 -34 21 C-33.29680729 12.84296452 -31.39046506 7.51903801 -25 2 C-17.85720784 -3.50590229 -8.12727305 -3.98999566 0 0 Z " fill="#1052A4" transform="translate(589,408)"/>
<path d="M0 0 C1.32 0.66 2.64 1.32 4 2 C3.40832031 2.38671875 2.81664062 2.7734375 2.20703125 3.171875 C-0.20773913 4.76333868 -2.60371288 6.38088708 -5 8 C-5.886875 8.5775 -6.77375 9.155 -7.6875 9.75 C-16.45444761 18.28000308 -20.06604129 31.09202641 -21 43 C-21.33 43 -21.66 43 -22 43 C-23.07693323 29.83748275 -21.02807938 20.99228502 -12.9140625 10.234375 C-9.25710089 5.96543206 -4.67097045 3.04156215 0 0 Z " fill="#1553A8" transform="translate(551,387)"/>
<path d="M0 0 C0.33 0.66 0.66 1.32 1 2 C0.67 2.721875 0.34 3.44375 0 4.1875 C-1.3265571 7.91844183 -0.94051693 10.17075252 0 14 C2.18091768 17.98581508 3.77374805 20.33234383 8 22 C12.84806154 22.68800873 17.35688481 22.89313356 21.4375 19.9375 C22.283125 19.298125 23.12875 18.65875 24 18 C24.99 18.33 25.98 18.66 27 19 C21.87023985 24.12976015 20.45323336 25.21738688 13.25 25.3125 C12.53328125 25.34150391 11.8165625 25.37050781 11.078125 25.40039062 C7.39875573 25.44435368 5.25989139 25.16512827 2.12890625 23.17578125 C-2.25350405 18.69687751 -4.23444776 15.0300851 -4.5 8.8125 C-4.3706614 5.2718559 -4.21054896 4.27634552 -2 1.375 C-1.34 0.92125 -0.68 0.4675 0 0 Z " fill="#0F4DA7" transform="translate(862,349)"/>
<path d="M0 0 C0.66 0 1.32 0 2 0 C1.0660832 6.57923475 -0.44667483 12.85959951 -2.4375 19.1875 C-2.64270264 19.83976562 -2.84790527 20.49203125 -3.05932617 21.1640625 C-4.56433017 25.84446603 -6.26986437 30.38630499 -8 35 C-17.24 35 -26.48 35 -36 35 C-36 34.67 -36 34.34 -36 34 C-27.42 34 -18.84 34 -10 34 C-9.34 30.7 -8.68 27.4 -8 24 C-7.39823259 21.91047041 -6.75586713 19.831739 -6.0546875 17.7734375 C-5.70019531 16.72285156 -5.34570312 15.67226563 -4.98046875 14.58984375 C-4.61566406 13.52894531 -4.25085938 12.46804688 -3.875 11.375 C-3.50246094 10.27542969 -3.12992188 9.17585938 -2.74609375 8.04296875 C-1.83623435 5.36005 -0.92078919 2.67918301 0 0 Z " fill="#0E4CA1" transform="translate(835,446)"/>
<path d="M0 0 C2 3 2 3 1.796875 5.1640625 C0.73446758 8.94498303 -0.48357865 12.65800192 -1.75 16.375 C-2.28911295 17.97394132 -2.82817453 19.57289997 -3.3671875 21.171875 C-3.63885742 21.97431641 -3.91052734 22.77675781 -4.19042969 23.60351562 C-5.4302054 27.27349102 -6.65243903 30.94926216 -7.875 34.625 C-8.58333333 36.75 -9.29166667 38.875 -10 41 C-10.66 41 -11.32 41 -12 41 C-12.495 43.475 -12.495 43.475 -13 46 C-14.12079011 42.63762968 -13.90153003 41.95063488 -12.82836914 38.7121582 C-12.54800308 37.85149246 -12.26763702 36.99082672 -11.97877502 36.1040802 C-11.66738083 35.17899155 -11.35598663 34.25390289 -11.03515625 33.30078125 C-10.72299667 32.35059616 -10.4108371 31.40041107 -10.08921814 30.4214325 C-9.08865172 27.38229417 -8.07574304 24.34743269 -7.0625 21.3125 C-6.38264771 19.25482666 -5.70360092 17.196887 -5.02539062 15.13867188 C-3.35960073 10.08931846 -1.68365481 5.04342276 0 0 Z " fill="#1556A8" transform="translate(851,396)"/>
<path d="M0 0 C0.33 0 0.66 0 1 0 C1.42965805 7.30418687 -0.00980268 13.9775939 -2 21 C-3 22 -3 22 -5.77563477 22.11352539 C-6.98533936 22.10828857 -8.19504395 22.10305176 -9.44140625 22.09765625 C-10.74658203 22.09443359 -12.05175781 22.09121094 -13.39648438 22.08789062 C-14.7851569 22.07953401 -16.17382877 22.07106905 -17.5625 22.0625 C-18.95507656 22.05748666 -20.34765481 22.05292347 -21.74023438 22.04882812 C-25.1601987 22.03699434 -28.58007844 22.0205088 -32 22 C-31.67 20.35 -31.34 18.7 -31 17 C-30.67 17.99 -30.34 18.98 -30 20 C-21.75 20 -13.5 20 -5 20 C-4.34 16.37 -3.68 12.74 -3 9 C-2.04669137 5.95674553 -1.10402496 2.9808674 0 0 Z " fill="#0B47A0" transform="translate(770,460)"/>
<path d="M0 0 C0.66 0.66 1.32 1.32 2 2 C0.38405168 4.04119788 -1.2856382 6.04072937 -3 8 C-3.66 8 -4.32 8 -5 8 C-5.0928125 8.8353125 -5.0928125 8.8353125 -5.1875 9.6875 C-6.333156 12.94821323 -8.54996997 14.57067445 -11 17 C-13.2391975 19.60345692 -15.37520523 22.29204721 -17.51367188 24.97851562 C-18.6333702 26.35463341 -19.81237816 27.68205506 -21 29 C-21.66 29 -22.32 29 -23 29 C-23 29.99 -23 30.98 -23 32 C-24.32 31.67 -25.64 31.34 -27 31 C-26.38253906 30.33355469 -25.76507813 29.66710937 -25.12890625 28.98046875 C-14.9635133 17.9738765 -14.9635133 17.9738765 -6 6 C-5.34 6 -4.68 6 -4 6 C-3.566875 5.071875 -3.566875 5.071875 -3.125 4.125 C-2 2 -2 2 0 0 Z " fill="#0D4EA6" transform="translate(423,395)"/>
<path d="M0 0 C0.33 0.66 0.66 1.32 1 2 C0.69720123 2.88277618 0.39440247 3.76555237 0.08242798 4.67507935 C-1.11632566 8.35732039 -1.27756376 11.33180582 -1.31884766 15.19873047 C-1.32889328 15.89211014 -1.3389389 16.58548981 -1.34928894 17.29988098 C-1.37996958 19.57230871 -1.39711343 21.84461946 -1.4140625 24.1171875 C-1.43278636 25.70045976 -1.45236068 27.28372216 -1.4727478 28.86697388 C-1.52394644 33.0195534 -1.56363754 37.17216522 -1.60089111 41.32489014 C-1.64100796 45.56823641 -1.69206516 49.81144971 -1.7421875 54.0546875 C-1.83880141 62.36970062 -1.92325236 70.68477989 -2 79 C-2.33 79 -2.66 79 -3 79 C-3.17703345 69.42086186 -3.34298422 59.84161462 -3.49477577 50.262043 C-3.56560665 45.81390209 -3.64025846 41.36589364 -3.72363281 36.91796875 C-3.80394806 32.62575189 -3.87423901 28.33347733 -3.93757248 24.04097748 C-3.96350271 22.40306293 -3.99304904 20.76520153 -4.02626419 19.12741852 C-4.0721591 16.83400468 -4.1052108 14.54073895 -4.13525391 12.24707031 C-4.16856308 10.28849091 -4.16856308 10.28849091 -4.20254517 8.29034424 C-4.01192018 5.19364318 -3.74945957 3.52193393 -2 1 C-1.34 0.67 -0.68 0.34 0 0 Z " fill="#0E52A6" transform="translate(1041,424)"/>
<path d="M0 0 C0.33 0 0.66 0 1 0 C1 2.31 1 4.62 1 7 C9.25 7 17.5 7 26 7 C26.33 7.99 26.66 8.98 27 10 C17.76 10 8.52 10 -1 10 C-0.67 6.7 -0.34 3.4 0 0 Z " fill="#1052A4" transform="translate(598,472)"/>
<path d="M0 0 C3.32630315 1.63455871 6.15248077 3.63761367 9 6 C8.67 6.66 8.34 7.32 8 8 C5.68604481 6.84302241 3.43002472 5.67068095 1.1875 4.375 C-3.16190142 2.49878762 -6.5457462 2.1435437 -11.08203125 3.7265625 C-15.54812022 5.76488882 -18.09116868 7.97238741 -21 12 C-21.66 12 -22.32 12 -23 12 C-21.67915553 6.38641099 -17.56312373 4.00405646 -13 1 C-8.9889401 -1.00552995 -4.34784074 -0.63334688 0 0 Z " fill="#0A4DA5" transform="translate(285,407)"/>
<path d="M0 0 C18.81 0.495 18.81 0.495 38 1 C38 1.66 38 2.32 38 3 C25.46 3 12.92 3 0 3 C0 2.01 0 1.02 0 0 Z " fill="#3673B6" transform="translate(456,420)"/>
<path d="M0 0 C0.66 0 1.32 0 2 0 C2.24234375 0.66386719 2.4846875 1.32773437 2.734375 2.01171875 C5.31961705 9.170065 5.31961705 9.170065 10 15 C12.58661664 16.14224991 15.17101741 17.11954603 17.85546875 18.0078125 C18.56316406 18.33523438 19.27085937 18.66265625 20 19 C20.33 19.99 20.66 20.98 21 22 C14.89628578 21.50173761 9.78106907 20.0232202 5.51953125 15.390625 C1.87750462 10.56307064 0 6.12795597 0 0 Z " fill="#1355A7" transform="translate(454,441)"/>
<path d="M0 0 C2.5 1.375 2.5 1.375 5 3 C5 3.66 5 4.32 5 5 C-6.22 5 -17.44 5 -29 5 C-29 4.34 -29 3.68 -29 3 C-19.43 2.67 -9.86 2.34 0 2 C0 1.34 0 0.68 0 0 Z " fill="#074AA0" transform="translate(428,476)"/>
<path d="M0 0 C6.4579097 1.70944669 9.5139754 6.51245335 12.78515625 11.98828125 C16.0352309 18.05163236 16.0352309 18.05163236 17 21 C16.15625 23.36328125 16.15625 23.36328125 15 25 C14.67128906 24.18208984 14.67128906 24.18208984 14.3359375 23.34765625 C10.734837 14.7840636 6.55032734 7.57286066 -1 2 C-0.67 1.34 -0.34 0.68 0 0 Z " fill="#1151A9" transform="translate(501,390)"/>
<path d="M0 0 C1.65 0 3.3 0 5 0 C5.33 0.99 5.66 1.98 6 3 C7.32904595 3.35003679 8.66295243 3.68189203 10 4 C16.03182125 10.89351 17.38225325 18.01704867 17 27 C16.67 27 16.34 27 16 27 C15.85304688 26.23816406 15.70609375 25.47632813 15.5546875 24.69140625 C13.98322213 17.4572467 11.8471608 11.68427492 7 6 C6.34 5.67 5.68 5.34 5 5 C5 4.34 5 3.68 5 3 C2.525 2.01 2.525 2.01 0 1 C0 0.67 0 0.34 0 0 Z " fill="#1153A5" transform="translate(305,388)"/>
<path d="M0 0 C0.99 0.33 1.98 0.66 3 1 C4.16796875 3.36328125 4.16796875 3.36328125 5.1875 6.3125 C5.53167969 7.27800781 5.87585938 8.24351562 6.23046875 9.23828125 C7 12 7 12 7 16 C6.34 16 5.68 16 5 16 C4.49384702 14.73160474 3.99530901 13.46016898 3.5 12.1875 C3.2215625 11.47980469 2.943125 10.77210938 2.65625 10.04296875 C2 8 2 8 2 5 C1.34 5 0.68 5 0 5 C-0.33 5.99 -0.66 6.98 -1 8 C-1.96873032 9.35622245 -2.96434215 10.69417053 -4 12 C-3.45660208 7.43545749 -2.20536179 4.0271824 0 0 Z " fill="#0C4DA4" transform="translate(781,425)"/>
<path d="M0 0 C0.97453125 0.00451172 1.9490625 0.00902344 2.953125 0.01367188 C5.34381434 0.02539094 7.7343744 0.04179781 10.125 0.0625 C10.29373478 1.49975871 10.45990737 2.93731838 10.625 4.375 C10.7178125 5.17550781 10.810625 5.97601563 10.90625 6.80078125 C11.125 9.0625 11.125 9.0625 11.125 12.0625 C10.135 12.5575 10.135 12.5575 9.125 13.0625 C8.795 9.4325 8.465 5.8025 8.125 2.0625 C-0.125 2.0625 -8.375 2.0625 -16.875 2.0625 C-16.875 1.7325 -16.875 1.4025 -16.875 1.0625 C-11.23973035 -0.14234722 -5.72963885 -0.0504643 0 0 Z " fill="#2D64AD" transform="translate(251.875,385.9375)"/>
<path d="M0 0 C17.83948794 -0.74446086 17.83948794 -0.74446086 23.875 4.6875 C25.50994383 8.04821788 26.76503582 11.47153092 28 15 C27.01 15.33 26.02 15.66 25 16 C24.731875 15.32453125 24.46375 14.6490625 24.1875 13.953125 C21.8315794 8.59030573 19.95756301 4.87660445 14.40234375 2.60546875 C9.67017479 1.41280828 4.86243174 1.16208106 0 1 C0 0.67 0 0.34 0 0 Z " fill="#0F4FA5" transform="translate(1055,413)"/>
<path d="M0 0 C9.05208926 1.4600144 16.82757752 5.02247894 23 12 C23 12.66 23 13.32 23 14 C19.97570641 13.66396738 19.03364846 13.03670741 16.9375 10.75 C12.61527773 6.08904558 5.90903062 3.96967687 0 2 C0 1.34 0 0.68 0 0 Z " fill="#0849A2" transform="translate(1088,385)"/>
<path d="M0 0 C2.86417151 2.86417151 2.83369273 5.4489719 3.1640625 9.390625 C2.84196798 14.51346161 -0.24978145 17.32254765 -3.78515625 20.7109375 C-6.82007845 22.47729433 -8.80101265 22.09987892 -12.25 21.6875 C-13.32765625 21.56761719 -14.4053125 21.44773437 -15.515625 21.32421875 C-16.33546875 21.21722656 -17.1553125 21.11023438 -18 21 C-18 20.67 -18 20.34 -18 20 C-16.75283203 19.80083984 -16.75283203 19.80083984 -15.48046875 19.59765625 C-14.39378906 19.42105469 -13.30710938 19.24445313 -12.1875 19.0625 C-11.10855469 18.88847656 -10.02960938 18.71445312 -8.91796875 18.53515625 C-5.95066644 18.06128079 -5.95066644 18.06128079 -3 17 C-0.1544981 11.94132995 0 5.69874908 0 0 Z " fill="#0E4DA3" transform="translate(218,352)"/>
<path d="M0 0 C2.22909871 -0.02714735 4.45829367 -0.04646254 6.6875 -0.0625 C7.92886719 -0.07410156 9.17023437 -0.08570313 10.44921875 -0.09765625 C13.46235454 -0.01478673 16.08275339 0.29160551 19 1 C19 1.99 19 2.98 19 4 C18.42556152 3.99476318 17.85112305 3.98952637 17.25927734 3.98413086 C14.63119623 3.96321424 12.00313271 3.95029341 9.375 3.9375 C8.47136719 3.92912109 7.56773437 3.92074219 6.63671875 3.91210938 C1.97095711 3.89508105 -2.41013285 4.03170577 -7 5 C-4.77810176 2.77810176 -2.91517292 2.07401108 0 1 C0 0.67 0 0.34 0 0 Z " fill="#0F51A7" transform="translate(563,383)"/>
<path d="M0 0 C0.33 0 0.66 0 1 0 C1.15855469 0.96679688 1.31710937 1.93359375 1.48046875 2.9296875 C2.77644889 10.31506404 4.281915 16.57845763 8.109375 23.14453125 C8.40328125 23.75683594 8.6971875 24.36914062 9 25 C8.67 25.66 8.34 26.32 8 27 C5 26 5 26 3.61328125 23.76953125 C0.04113227 15.64906045 -0.58676718 8.81454701 0 0 Z " fill="#0D4EA4" transform="translate(529,439)"/>
<path d="M0 0 C1.32 0 2.64 0 4 0 C3.5206753 4.31392226 2.2542015 6.16569547 -1 9 C-1 5 -1 5 0 4 C-13.86 3.505 -13.86 3.505 -28 3 C-28 2.67 -28 2.34 -28 2 C-18.76 1.67 -9.52 1.34 0 1 C0 0.67 0 0.34 0 0 Z " fill="#0C53A5" transform="translate(427,386)"/>
<path d="M0 0 C-0.99 0.66 -1.98 1.32 -3 2 C-3.99 1.67 -4.98 1.34 -6 1 C-7.47686111 0.90752619 -8.95775501 0.87000929 -10.4375 0.875 C-11.19933594 0.87242187 -11.96117187 0.86984375 -12.74609375 0.8671875 C-15.01338094 0.91627703 -15.01338094 0.91627703 -17.16015625 1.6328125 C-17.76730469 1.75398438 -18.37445313 1.87515625 -19 2 C-19.66 1.34 -20.32 0.68 -21 0 C-13.21305279 -3.81401496 -7.78694721 -3.81401496 0 0 Z " fill="#0945A5" transform="translate(486,406)"/>
<path d="M0 0 C5.09505669 4.61116863 6.48670135 11.32711751 7 18 C6.5625 20.4375 6.5625 20.4375 6 22 C5.34 22 4.68 22 4 22 C3.79503906 20.89140625 3.59007812 19.7828125 3.37890625 18.640625 C3.10683538 17.17707133 2.83469638 15.71353033 2.5625 14.25 C2.42779297 13.52039063 2.29308594 12.79078125 2.15429688 12.0390625 C1.39677502 7.94028197 1.39677502 7.94028197 0.45288086 3.88183594 C0 2 0 2 0 0 Z " fill="#0E55A4" transform="translate(1113,402)"/>
<path d="M0 0 C0.99 0 1.98 0 3 0 C1.68761832 2.84258606 0.23292824 5.09408245 -1.8203125 7.453125 C-2.35527344 8.071875 -2.89023437 8.690625 -3.44140625 9.328125 C-3.99699219 9.96234375 -4.55257813 10.5965625 -5.125 11.25 C-5.68832031 11.8996875 -6.25164062 12.549375 -6.83203125 13.21875 C-8.21764364 14.815727 -9.60832754 16.40830122 -11 18 C-11 15 -11 15 -9 12 C-8.731875 11.401875 -8.46375 10.80375 -8.1875 10.1875 C-6.48659055 7.05424574 -4.4016891 4.64185801 -2 2 C-1.34 2 -0.68 2 0 2 C0 1.34 0 0.68 0 0 Z " fill="#1A59A7" transform="translate(381,406)"/>
<path d="M0 0 C0.33 0.99 0.66 1.98 1 3 C1.66 3 2.32 3 3 3 C4.47265625 4.86328125 4.47265625 4.86328125 6.0625 7.3125 C6.85333984 8.51326172 6.85333984 8.51326172 7.66015625 9.73828125 C9 12 9 12 10 15 C9.34 15.66 8.68 16.32 8 17 C4.7 12.38 1.4 7.76 -2 3 C-1 1 -1 1 0 0 Z " fill="#1355A7" transform="translate(399,430)"/>
<path d="M0 0 C1.43410153 3.78819273 0.51009497 6.06521279 -0.9375 9.75 C-1.31777344 10.73484375 -1.69804688 11.7196875 -2.08984375 12.734375 C-2.39019531 13.48203125 -2.69054687 14.2296875 -3 15 C-4.32 14.67 -5.64 14.34 -7 14 C-7.33 11.69 -7.66 9.38 -8 7 C-6.02 7.99 -6.02 7.99 -4 9 C-3.81824219 8.15115234 -3.81824219 8.15115234 -3.6328125 7.28515625 C-3.38144531 6.18494141 -3.38144531 6.18494141 -3.125 5.0625 C-2.96257813 4.33160156 -2.80015625 3.60070312 -2.6328125 2.84765625 C-2 1 -2 1 0 0 Z " fill="#1557A6" transform="translate(758,432)"/>
<path d="M0 0 C2.53591435 3.80387153 3.74620428 7.68628669 5.1875 12 C5.47302734 12.81984375 5.75855469 13.6396875 6.05273438 14.484375 C6.31763672 15.27328125 6.58253906 16.0621875 6.85546875 16.875 C7.09934326 17.59429687 7.34321777 18.31359375 7.59448242 19.0546875 C8 21 8 21 7 24 C7 23.34 7 22.68 7 22 C6.34 22 5.68 22 5 22 C4.35105763 19.93847611 3.7059736 17.87573742 3.0625 15.8125 C2.52302734 14.08966797 2.52302734 14.08966797 1.97265625 12.33203125 C0.71698479 8.03047402 0 4.49331424 0 0 Z " fill="#0D4FA5" transform="translate(713,399)"/>
<path d="M0 0 C0.33 0 0.66 0 1 0 C1.43230491 7.34918342 -0.18225815 13.90215087 -2 21 C-2.99 20.34 -3.98 19.68 -5 19 C-4.35561067 16.39546825 -3.7095496 13.7913709 -3.0625 11.1875 C-2.88009766 10.44951172 -2.69769531 9.71152344 -2.50976562 8.95117188 C-1.7577385 5.92939016 -0.98514427 2.95543282 0 0 Z " fill="#1559A8" transform="translate(770,460)"/>
<path d="M0 0 C0.66 0.66 1.32 1.32 2 2 C2.99 2.66 3.98 3.32 5 4 C-3.25 3.67 -11.5 3.34 -20 3 C-20 2.67 -20 2.34 -20 2 C-5.31818182 -0.47272727 -5.31818182 -0.47272727 0 0 Z " fill="#094BA2" transform="translate(485,383)"/>
<path d="M0 0 C2 1 2 1 3.32421875 4.52734375 C3.78673625 5.99487047 4.2408103 7.46507839 4.6875 8.9375 C4.92533203 9.67935547 5.16316406 10.42121094 5.40820312 11.18554688 C7.12715774 16.74568452 7.12715774 16.74568452 6 19 C5.34 19 4.68 19 4 19 C3.13499112 16.39898714 2.28273072 13.79493589 1.4375 11.1875 C1.19064453 10.44951172 0.94378906 9.71152344 0.68945312 8.95117188 C-1.11328125 3.33984375 -1.11328125 3.33984375 0 0 Z " fill="#1053A6" transform="translate(721,424)"/>
<path d="M0 0 C0.99 0.33 1.98 0.66 3 1 C2.67 1.99 2.34 2.98 2 4 C1.84653047 6.65606301 1.74282102 9.29095095 1.68359375 11.94921875 C1.66281265 12.72183548 1.64203156 13.49445221 1.62062073 14.29048157 C1.55528962 16.7560648 1.49631685 19.22175361 1.4375 21.6875 C1.39429913 23.36003691 1.35068434 25.03256319 1.30664062 26.70507812 C1.1996251 30.8032775 1.09831143 34.90158296 1 39 C0.67 39 0.34 39 0 39 C0 26.13 0 13.26 0 0 Z " fill="#1954AA" transform="translate(338,342)"/>
<path d="M0 0 C0.66 0.99 1.32 1.98 2 3 C-2.23630347 7.7497948 -6.43170266 10.77223634 -12.9375 11.1875 C-13.618125 11.125625 -14.29875 11.06375 -15 11 C-14.01 10.67 -13.02 10.34 -12 10 C-12 9.34 -12 8.68 -12 8 C-10.4221875 7.4121875 -10.4221875 7.4121875 -8.8125 6.8125 C-5.08341068 5.23597443 -2.70336513 3.03104575 0 0 Z " fill="#0A4EA3" transform="translate(1162,534)"/>
<path d="M0 0 C0.99 0 1.98 0 3 0 C3.55843403 2.41387612 4.09704158 4.82944486 4.625 7.25 C4.78484375 7.93191406 4.9446875 8.61382812 5.109375 9.31640625 C5.76605417 12.39085874 6.18715605 14.49131945 5.0859375 17.484375 C4.72757813 17.98453125 4.36921875 18.4846875 4 19 C3.32713788 16.58490559 2.66153988 14.16819644 2 11.75 C1.71382812 10.72712891 1.71382812 10.72712891 1.421875 9.68359375 C0.50042956 6.29399088 0 3.54221024 0 0 Z " fill="#1158A4" transform="translate(797,395)"/>
<path d="M0 0 C3.80023841 3.40021332 5.92812718 5.96219776 7 11 C6.625 13.375 6.625 13.375 6 15 C6 14.34 6 13.68 6 13 C5.34 13 4.68 13 4 13 C3.73445313 12.38511719 3.46890625 11.77023437 3.1953125 11.13671875 C2.84210938 10.32847656 2.48890625 9.52023437 2.125 8.6875 C1.77695312 7.88699219 1.42890625 7.08648437 1.0703125 6.26171875 C-0.02571894 3.8038166 -0.02571894 3.8038166 -2 1 C-1.34 0.67 -0.68 0.34 0 0 Z " fill="#1350AD" transform="translate(488,408)"/>
<path d="M0 0 C1.86610926 2.79916389 2.68785383 4.81938269 3.625 8 C3.88539063 8.86625 4.14578125 9.7325 4.4140625 10.625 C5 13 5 13 5 16 C4.34 16 3.68 16 3 16 C1.35 11.38 -0.3 6.76 -2 2 C-1.34 1.34 -0.68 0.68 0 0 Z " fill="#1253A3" transform="translate(793,459)"/>
<path d="M0 0 C0.99 0.33 1.98 0.66 3 1 C2.45018084 7.04801071 1.09570426 12.30601106 -1 18 C-1.98708413 14.81775863 -1.99726151 12.30004797 -1.625 9 C-1.53476562 8.154375 -1.44453125 7.30875 -1.3515625 6.4375 C-1.0337886 4.23426765 -0.58602304 2.14544028 0 0 Z " fill="#1151A8" transform="translate(761,412)"/>
<path d="M0 0 C3.91211733 1.15585285 6.8745041 2.35534962 10 5 C10.33 4.34 10.66 3.68 11 3 C11.66 3 12.32 3 13 3 C13 4.32 13 5.64 13 7 C12.34 7 11.68 7 11 7 C10.67 7.66 10.34 8.32 10 9 C8.3278148 7.88321917 6.66237197 6.75633648 5 5.625 C3.6078125 4.68527344 3.6078125 4.68527344 2.1875 3.7265625 C1.465625 3.15679687 0.74375 2.58703125 0 2 C0 1.34 0 0.68 0 0 Z " fill="#1556AA" transform="translate(585,386)"/>
<path d="M0 0 C1.6875 0.125 1.6875 0.125 4 1 C4.804375 1.969375 5.60875 2.93875 6.4375 3.9375 C8.96627471 6.95969417 10.29729429 7.94208408 14 9 C12.02 9.99 12.02 9.99 10 11 C2.23162964 5.80689762 2.23162964 5.80689762 0 2 C0 1.34 0 0.68 0 0 Z " fill="#1455A7" transform="translate(942,362)"/>
<path d="M0 0 C2.5 1.375 2.5 1.375 5 4 C5.56163633 7.38072353 5.55966495 10.61844546 5 14 C4.34 14.66 3.68 15.32 3 16 C1.29910781 14.29910781 1.67252736 12.01353847 1.5 9.6875 C1.24991284 6.34258426 0.92061163 3.22981248 0 0 Z " fill="#0B4FA2" transform="translate(887,349)"/>
<path d="M0 0 C0.66 0.33 1.32 0.66 2 1 C2 8.92 2 16.84 2 25 C1.01 25.33 0.02 25.66 -1 26 C-1 25.34 -1 24.68 -1 24 C-0.34 24 0.32 24 1 24 C0.86068862 20.9163358 0.71240719 17.83316583 0.5625 14.75 C0.52318359 13.87730469 0.48386719 13.00460937 0.44335938 12.10546875 C0.40146484 11.26113281 0.35957031 10.41679687 0.31640625 9.546875 C0.27974854 8.77182617 0.24309082 7.99677734 0.20532227 7.19824219 C0.05769085 4.97481925 0.05769085 4.97481925 -0.58227539 2.77832031 C-0.72012451 2.19147461 -0.85797363 1.60462891 -1 1 C-0.67 0.67 -0.34 0.34 0 0 Z " fill="#114AA9" transform="translate(632,342)"/>
<path d="M0 0 C1.62276158 2.43414237 2.61744792 4.31319446 3.625 7 C3.88539063 7.680625 4.14578125 8.36125 4.4140625 9.0625 C5 11 5 11 5 14 C2 13 2 13 1.015625 11.07421875 C0.76296875 10.28660156 0.5103125 9.49898438 0.25 8.6875 C-0.14445313 7.51767578 -0.14445313 7.51767578 -0.546875 6.32421875 C-1.03298902 3.83078909 -0.80665429 2.3818103 0 0 Z " fill="#1052A8" transform="translate(733,459)"/>
<path d="M0 0 C1 3 1 3 0.00390625 5.26171875 C-0.47175781 6.06222656 -0.94742187 6.86273438 -1.4375 7.6875 C-2.14712891 8.89986328 -2.14712891 8.89986328 -2.87109375 10.13671875 C-3.24363281 10.75160156 -3.61617188 11.36648438 -4 12 C-4.66 12 -5.32 12 -6 12 C-6.33 12.66 -6.66 13.32 -7 14 C-6.43584703 8.07639384 -4.18653966 4.18653966 0 0 Z " fill="#0E50A6" transform="translate(462,408)"/>
<path d="M0 0 C0 3.99711412 -1.32141544 5.1042329 -4 8 C-6.625 9.875 -6.625 9.875 -9 11 C-9.66 10.67 -10.32 10.34 -11 10 C-9.33333333 8.33333333 -7.66666667 6.66666667 -6 5 C-4.9171875 3.88625 -4.9171875 3.88625 -3.8125 2.75 C-2 1 -2 1 0 0 Z " fill="#1150A6" transform="translate(982,362)"/>
<path d="M0 0 C3.09305422 0.60903059 5.19639762 1.59868803 7.75 3.4375 C8.36359375 3.86933594 8.9771875 4.30117188 9.609375 4.74609375 C10.29773438 5.36677734 10.29773438 5.36677734 11 6 C11 6.66 11 7.32 11 8 C7.78147169 7.36934243 5.49198931 6.21979305 2.75 4.4375 C2.04359375 3.98246094 1.3371875 3.52742188 0.609375 3.05859375 C-0.18726563 2.53458984 -0.18726563 2.53458984 -1 2 C-0.67 1.34 -0.34 0.68 0 0 Z " fill="#094CA2" transform="translate(586,408)"/>
<path d="M0 0 C0.99 0.33 1.98 0.66 3 1 C2.67 9.91 2.34 18.82 2 28 C1.67 28 1.34 28 1 28 C0.67 18.76 0.34 9.52 0 0 Z " fill="#2569AE" transform="translate(596,342)"/>
<path d="M0 0 C1.14109582 3.42328747 0.84733551 4.06602175 -0.375 7.3125 C-1.64759778 10.86880066 -2.5176786 14.2378931 -3 18 C-3.33 18 -3.66 18 -4 18 C-4.2236337 16.58566794 -4.42826476 15.16832382 -4.625 13.75 C-4.74101562 12.96109375 -4.85703125 12.1721875 -4.9765625 11.359375 C-5.00369066 8.62847367 -4.39158517 7.31930862 -3 5 C-2.195625 3.63875 -2.195625 3.63875 -1.375 2.25 C-0.92125 1.5075 -0.4675 0.765 0 0 Z " fill="#0D4AA4" transform="translate(432,411)"/>
<path d="M0 0 C1.65 0.33 3.3 0.66 5 1 C5 1.66 5 2.32 5 3 C5.66 3.33 6.32 3.66 7 4 C6.34 4.66 5.68 5.32 5 6 C3.68 5.34 2.36 4.68 1 4 C0.01 4.99 -0.98 5.98 -2 7 C-2.66 6.67 -3.32 6.34 -4 6 C-2.68 4.02 -1.36 2.04 0 0 Z " fill="#1755A4" transform="translate(501,451)"/>
<path d="M0 0 C-3.61186839 2.74501997 -7.30395263 5.37012014 -11 8 C-11.66 7.34 -12.32 6.68 -13 6 C-12.34 6 -11.68 6 -11 6 C-10.7525 5.38125 -10.505 4.7625 -10.25 4.125 C-7.79707091 -0.04497945 -4.56624279 -0.25368016 0 0 Z " fill="#0F4DA7" transform="translate(1054,414)"/>
<path d="M0 0 C0.66 0.33 1.32 0.66 2 1 C1.34 6.28 0.68 11.56 0 17 C-0.33 17 -0.66 17 -1 17 C-1.02684679 14.35409986 -1.04676357 11.70846904 -1.0625 9.0625 C-1.07087891 8.30775391 -1.07925781 7.55300781 -1.08789062 6.77539062 C-1.09652441 4.85005687 -1.05224333 2.92464419 -1 1 C-0.67 0.67 -0.34 0.34 0 0 Z " fill="#0C4CA6" transform="translate(530,413)"/>
<path d="M0 0 C1.72274487 2.58411731 2.68895522 4.54902656 3.6875 7.4375 C3.95949219 8.19933594 4.23148438 8.96117187 4.51171875 9.74609375 C5.04729142 12.21829721 4.80445309 13.62983284 4 16 C3.71125 15.236875 3.4225 14.47375 3.125 13.6875 C2.03730987 10.84970692 2.03730987 10.84970692 0 8 C-1.09658936 4.71023192 -0.79953138 3.28696233 0 0 Z " fill="#0948A3" transform="translate(788,442)"/>
<path d="M0 0 C3.14027363 0.33645789 4.05098295 1.05236086 6.3125 3.375 C6.869375 4.24125 7.42625 5.1075 8 6 C7.67 6.99 7.34 7.98 7 9 C1.21538462 4.56923077 1.21538462 4.56923077 0.125 1.6875 C0.08375 1.130625 0.0425 0.57375 0 0 Z " fill="#0D43B6" transform="translate(906,533)"/>
<path d="M0 0 C2.13586678 3.20380017 2.23132175 4.01939967 2.125 7.6875 C2.10695313 8.49574219 2.08890625 9.30398438 2.0703125 10.13671875 C2.04710937 10.75160156 2.02390625 11.36648438 2 12 C1.01 12 0.02 12 -1 12 C-1.14285714 3.42857143 -1.14285714 3.42857143 0 0 Z " fill="#0641A4" transform="translate(983,345)"/>
<path d="M0 0 C0.66 0 1.32 0 2 0 C3.7265625 1.96875 3.7265625 1.96875 5.625 4.5 C6.25664063 5.3353125 6.88828125 6.170625 7.5390625 7.03125 C8.02117188 7.6809375 8.50328125 8.330625 9 9 C6 9 6 9 4.39453125 7.79296875 C3.87246094 7.26316406 3.35039063 6.73335938 2.8125 6.1875 C2.01779297 5.40439453 2.01779297 5.40439453 1.20703125 4.60546875 C0 3 0 3 0 0 Z " fill="#1151A4" transform="translate(538,467)"/>
<path d="M0 0 C1.0828125 0.37125 1.0828125 0.37125 2.1875 0.75 C-0.50091859 3.00245881 -2.45891875 4.63213958 -5.8125 5.75 C-6.4725 5.09 -7.1325 4.43 -7.8125 3.75 C-3.50480769 -0.31153846 -3.50480769 -0.31153846 0 0 Z " fill="#1654A8" transform="translate(273.8125,387.25)"/>
<path d="M0 0 C1.8125 0.234375 1.8125 0.234375 4 0.75 C4.721875 0.90984375 5.44375 1.0696875 6.1875 1.234375 C6.785625 1.48703125 7.38375 1.7396875 8 2 C8.33 2.99 8.66 3.98 9 5 C2.47692308 4.38461538 2.47692308 4.38461538 0.0625 2.4375 C-0.288125 1.963125 -0.63875 1.48875 -1 1 C-0.67 0.67 -0.34 0.34 0 0 Z " fill="#1051A5" transform="translate(914,540)"/>
<path d="M0 0 C0.66 0.33 1.32 0.66 2 1 C1.27683594 1.61488281 1.27683594 1.61488281 0.5390625 2.2421875 C-0.09257813 2.78101563 -0.72421875 3.31984375 -1.375 3.875 C-2.00148438 4.40867187 -2.62796875 4.94234375 -3.2734375 5.4921875 C-4.55836651 6.61432007 -5.79371975 7.79371975 -7 9 C-7.33 8.01 -7.66 7.02 -8 6 C-5.66656647 2.49984971 -3.83082186 1.59617578 0 0 Z " fill="#0B4BA5" transform="translate(915,300)"/>
<path d="M0 0 C0.66 0 1.32 0 2 0 C1.58525633 5.28798182 0.64775386 8.11690718 -3 12 C-2.40075776 7.80530429 -1.42500059 3.99000166 0 0 Z " fill="#0F4CA8" transform="translate(835,446)"/>
<path d="M0 0 C1.485 0.99 1.485 0.99 3 2 C3 2.99 3 3.98 3 5 C3.66 5 4.32 5 5 5 C5.33 4.34 5.66 3.68 6 3 C5.67 4.65 5.34 6.3 5 8 C3.68 7.67 2.36 7.34 1 7 C0.67 4.69 0.34 2.38 0 0 Z " fill="#0B46A5" transform="translate(750,439)"/>
<path d="M0 0 C0 3.58912412 -0.66436554 4.10857029 -3 6.6875 C-3.556875 7.31011719 -4.11375 7.93273437 -4.6875 8.57421875 C-5.120625 9.04472656 -5.55375 9.51523437 -6 10 C-6 7 -6 7 -4 4 C-3.67 3.01 -3.34 2.02 -3 1 C-2.01 0.67 -1.02 0.34 0 0 Z " fill="#0C46AA" transform="translate(376,414)"/>
<path d="M0 0 C1.485 0.99 1.485 0.99 3 2 C3 2.66 3 3.32 3 4 C5.475 4.99 5.475 4.99 8 6 C8 6.33 8 6.66 8 7 C3.52599758 7.36275695 3.52599758 7.36275695 1.1875 5.75 C0 4 0 4 0 0 Z " fill="#1051A4" transform="translate(191,365)"/>
<path d="M0 0 C-1.1446875 0.8971875 -1.1446875 0.8971875 -2.3125 1.8125 C-4.3483575 3.46959332 -6.1978279 5.10297674 -8 7 C-8.1875 4.625 -8.1875 4.625 -8 2 C-4.77208445 -0.1519437 -3.71599191 -0.20086443 0 0 Z " fill="#1354A7" transform="translate(199,344)"/>
<path d="M0 0 C0.99 0 1.98 0 3 0 C4.25 6.625 4.25 6.625 2 10 C1.34 6.7 0.68 3.4 0 0 Z " fill="#0742AA" transform="translate(743,413)"/>
<path d="M0 0 C3.60296594 -0.41176754 4.78402067 -0.1535853 7.8125 2 C8.534375 2.66 9.25625 3.32 10 4 C9.67 4.66 9.34 5.32 9 6 C5.88802644 4.50164236 2.91164984 2.86022073 0 1 C0 0.67 0 0.34 0 0 Z " fill="#0B47AA" transform="translate(284,409)"/>
<path d="M0 0 C2 3 2 3 1.625 5.1875 C1.41875 5.785625 1.2125 6.38375 1 7 C0.34 7 -0.32 7 -1 7 C-1.33 8.65 -1.66 10.3 -2 12 C-3.15957207 8.52128379 -2.77456651 7.65780355 -1.5625 4.3125 C-1.13130859 3.10013672 -1.13130859 3.10013672 -0.69140625 1.86328125 C-0.46324219 1.24839844 -0.23507812 0.63351562 0 0 Z " fill="#0A4D9F" transform="translate(851,396)"/>
<path d="M0 0 C0.66 0 1.32 0 2 0 C4.21538462 5.41538462 4.21538462 5.41538462 3.125 8.375 C2.75375 8.91125 2.3825 9.4475 2 10 C0.68373308 6.38026598 0 3.90432869 0 0 Z " fill="#0946A5" transform="translate(454,441)"/>
<path d="M0 0 C2.95183101 2.95183101 3.08663988 5.95511947 4 10 C3.01 10 2.02 10 1 10 C0.67 6.7 0.34 3.4 0 0 Z " fill="#0948A6" transform="translate(724,433)"/>
<path d="M0 0 C0.33 0.99 0.66 1.98 1 3 C1.66 3 2.32 3 3 3 C3.625 5.3125 3.625 5.3125 4 8 C3.01 9.485 3.01 9.485 2 11 C0.57741188 7.17679443 -0.24042276 4.08718695 0 0 Z " fill="#0A4AA1" transform="translate(803,419)"/>
<path d="M0 0 C1.60080151 4.00200378 0.29279692 7.04556236 -1 11 C-3 8 -3 8 -2.75 4.9375 C-2 2 -2 2 0 0 Z " fill="#0845A4" transform="translate(766,400)"/>
<path d="M0 0 C0.33 0 0.66 0 1 0 C1.125 7.75 1.125 7.75 0 10 C-0.66 10 -1.32 10 -2 10 C-1.54177532 6.53058454 -1.10868317 3.32604951 0 0 Z " fill="#0B4CA2" transform="translate(770,460)"/>
<path d="M0 0 C0.33 0 0.66 0 1 0 C0.67 2.64 0.34 5.28 0 8 C-0.99 8 -1.98 8 -3 8 C-1.125 1.125 -1.125 1.125 0 0 Z " fill="#1856A7" transform="translate(907,307)"/>
<path d="M0 0 C1.32 1.32 2.64 2.64 4 4 C3.01 5.485 3.01 5.485 2 7 C0.68 5.02 -0.64 3.04 -2 1 C-1.34 0.67 -0.68 0.34 0 0 Z " fill="#0F58A1" transform="translate(424,467)"/>
<path d="M0 0 C0.66 0.99 1.32 1.98 2 3 C1.67 3.99 1.34 4.98 1 6 C0.34 6 -0.32 6 -1 6 C-1.33 7.65 -1.66 9.3 -2 11 C-3.13643966 7.59068103 -2.86747764 6.99664544 -1.5625 3.8125 C-1.13130859 2.73935547 -1.13130859 2.73935547 -0.69140625 1.64453125 C-0.46324219 1.10183594 -0.23507812 0.55914062 0 0 Z " fill="#0849A0" transform="translate(840,431)"/>
<path d="M0 0 C0.66 0.33 1.32 0.66 2 1 C2 1.66 2 2.32 2 3 C1.01 3 0.02 3 -1 3 C-1.66 4.32 -2.32 5.64 -3 7 C-3.33 5.68 -3.66 4.36 -4 3 C-2.68 2.01 -1.36 1.02 0 0 Z " fill="#0A48A8" transform="translate(565,409)"/>
<path d="M0 0 C1.25541557 3.76624671 0.37061958 5.37188934 -1 9 C-1.66 8.34 -2.32 7.68 -3 7 C-2.625 4.375 -2.625 4.375 -2 2 C-1.34 2 -0.68 2 0 2 C0 1.34 0 0.68 0 0 Z " fill="#094A9D" transform="translate(826,394)"/>
<path d="M0 0 C0.99 0 1.98 0 3 0 C4.16552619 4.19589427 4.08954032 4.82091936 2 9 C1.34 6.03 0.68 3.06 0 0 Z " fill="#0F4AAA" transform="translate(737,392)"/>
<path d="M0 0 C1.35015859 4.05047576 0.62084998 6.7920168 0 11 C-0.99 11 -1.98 11 -3 11 C-2.69078116 9.54096742 -2.37751201 8.08279278 -2.0625 6.625 C-1.88847656 5.81289063 -1.71445312 5.00078125 -1.53515625 4.1640625 C-1 2 -1 2 0 0 Z " fill="#0F53A2" transform="translate(828,468)"/>
<path d="M0 0 C2 3 2 3 2 6 C2.66 6 3.32 6 4 6 C3.67 7.98 3.34 9.96 3 12 C0.60926555 8.17482487 0.44033448 4.40334476 0 0 Z " fill="#0A4AA1" transform="translate(799,402)"/>
<path d="M0 0 C1.875 0.1875 1.875 0.1875 4 1 C5.1875 3.4375 5.1875 3.4375 6 6 C6.33 6.66 6.66 7.32 7 8 C3.64379729 6.61122646 1.92701272 5.08322035 0 2 C0 1.34 0 0.68 0 0 Z " fill="#0B50A1" transform="translate(942,362)"/>
</svg>
